<?xml version="1.0" encoding="UTF-8"?>
<svg width="337px" height="97px" viewBox="0 0 337 97" version="1.1" xmlns="http://www.w3.org/2000/svg" xmlns:xlink="http://www.w3.org/1999/xlink">
    <!-- Generator: Sketch 53.2 (72643) - https://sketchapp.com -->
    <title>PopulateData-Logo</title>
    <desc>Created with Sketch.</desc>
    <g id="Page-1" stroke="none" stroke-width="1" fill="none" fill-rule="evenodd">
        <g id="Artboard" transform="translate(-131.000000, -512.000000)">
            <g id="Group-3-Copy" transform="translate(155.000000, 535.000000)">
                <path d="M216.301771,17 C218.133297,17 219.292686,17.0080862 219.779973,17.0242588 C223.090162,17.1374669 225.572766,17.9743857 227.227861,19.5350404 C228.882956,21.0956951 229.71049,23.2344878 229.71049,25.9514825 C229.71049,27.7628123 229.33663,29.3477021 228.588896,30.7061995 C227.841163,32.0646968 226.719581,33.1199423 225.224114,33.8719677 C223.728648,34.623993 221.89715,35 219.729564,35 L213.655313,35 C213.420071,35 213.252044,34.951483 213.151226,34.8544474 C213.050408,34.7574119 213,34.5876023 213,34.3450135 L213,17.5579515 C213,17.3477078 213.042007,17.2021567 213.126022,17.1212938 C213.210037,17.0404309 213.369663,17 213.604905,17 L216.301771,17 Z M218.31812,20.4204852 C218.166893,20.4204852 218.091281,20.5336916 218.091281,20.7601078 L218.091281,31.2398922 C218.091281,31.3692729 218.112284,31.4582208 218.154292,31.5067385 C218.196299,31.5552563 218.284513,31.5795148 218.418937,31.5795148 L218.746594,31.5795148 C220.628529,31.5795148 222.035758,31.1388184 222.968324,30.2574124 C223.90089,29.3760064 224.367166,27.9245384 224.367166,25.902965 C224.367166,24.0916351 223.993305,22.7655029 223.245572,21.9245283 C222.497839,21.0835537 221.367855,20.6064696 219.855586,20.4932615 L218.31812,20.4204852 Z M231.802452,35 C231.668028,35 231.563011,34.9595691 231.487398,34.8787062 C231.411784,34.7978433 231.373978,34.6846368 231.373978,34.5390836 C231.373978,34.4258754 231.399182,34.312669 231.449591,34.1994609 L237.649864,17.509434 C237.717076,17.3153629 237.801089,17.1819411 237.901907,17.1091644 C238.002725,17.0363878 238.15395,17 238.355586,17 L242.741144,17 C243.144416,17 243.430063,17.2021543 243.598093,17.606469 L249.722752,34.2479784 C249.739555,34.2964962 249.747956,34.3773579 249.747956,34.490566 C249.747956,34.6361193 249.718552,34.7574119 249.659741,34.8544474 C249.600931,34.951483 249.512716,35 249.395095,35 L245.034741,35 C244.765893,35 244.589465,34.8706212 244.50545,34.6118598 L243.396458,31.458221 C243.346049,31.3611855 243.299841,31.292453 243.257834,31.2520216 C243.215826,31.2115901 243.136013,31.1913747 243.018392,31.1913747 L237.297003,31.1913747 C237.11217,31.1913747 236.994551,31.2803226 236.944142,31.458221 L235.759537,34.6603774 C235.675522,34.8867936 235.490692,35 235.205041,35 L231.802452,35 Z M241.884196,27.5040431 C242.052226,27.5040431 242.13624,27.4231814 242.13624,27.2614555 C242.13624,27.16442 242.127838,27.0916444 242.111035,27.0431267 L240.296322,22.1671159 C240.279519,22.0700804 240.22911,22.0215633 240.145095,22.0215633 C240.077883,22.0215633 240.027475,22.0700804 239.993869,22.1671159 L238.153951,27.0431267 C238.120345,27.107817 238.103542,27.1886788 238.103542,27.2857143 C238.103542,27.4312676 238.204359,27.5040431 238.405995,27.5040431 L241.884196,27.5040431 Z M251.235014,17.509434 C251.235014,17.3638807 251.281221,17.2425881 251.373638,17.1455526 C251.466054,17.048517 251.604677,17 251.78951,17 L266.584469,17 C266.769302,17 266.907924,17.048517 267.000341,17.1455526 C267.092757,17.2425881 267.138965,17.3638807 267.138965,17.509434 L267.138965,20.0808625 C267.138965,20.3557965 266.970937,20.4932615 266.634877,20.4932615 L262.047684,20.4932615 C261.862851,20.4932615 261.770436,20.5741232 261.770436,20.7358491 L261.770436,34.5148248 C261.770436,34.8382765 261.619211,35 261.316757,35 L257.082425,35 C256.796774,35 256.653951,34.8463627 256.653951,34.5390836 L256.653951,20.8328841 C256.653951,20.7035034 256.637148,20.6145555 256.603542,20.5660377 C256.569936,20.51752 256.502725,20.4932615 256.401907,20.4932615 L251.764305,20.4932615 C251.411442,20.4932615 251.235014,20.3557965 251.235014,20.0808625 L251.235014,17.509434 Z M269.054496,35 C268.920072,35 268.815055,34.9595691 268.739441,34.8787062 C268.663828,34.7978433 268.626022,34.6846368 268.626022,34.5390836 C268.626022,34.4258754 268.651226,34.312669 268.701635,34.1994609 L274.901907,17.509434 C274.969119,17.3153629 275.053133,17.1819411 275.153951,17.1091644 C275.254769,17.0363878 275.405994,17 275.607629,17 L279.993188,17 C280.39646,17 280.682106,17.2021543 280.850136,17.606469 L286.974796,34.2479784 C286.991599,34.2964962 287,34.3773579 287,34.490566 C287,34.6361193 286.970595,34.7574119 286.911785,34.8544474 C286.852974,34.951483 286.76476,35 286.647139,35 L282.286785,35 C282.017937,35 281.841508,34.8706212 281.757493,34.6118598 L280.648501,31.458221 C280.598092,31.3611855 280.551885,31.292453 280.509877,31.2520216 C280.46787,31.2115901 280.388057,31.1913747 280.270436,31.1913747 L274.549046,31.1913747 C274.364213,31.1913747 274.246594,31.2803226 274.196185,31.458221 L273.01158,34.6603774 C272.927565,34.8867936 272.742735,35 272.457084,35 L269.054496,35 Z M279.13624,27.5040431 C279.30427,27.5040431 279.388283,27.4231814 279.388283,27.2614555 C279.388283,27.16442 279.379882,27.0916444 279.363079,27.0431267 L277.548365,22.1671159 C277.531562,22.0700804 277.481154,22.0215633 277.397139,22.0215633 C277.329927,22.0215633 277.279519,22.0700804 277.245913,22.1671159 L275.405995,27.0431267 C275.372389,27.107817 275.355586,27.1886788 275.355586,27.2857143 C275.355586,27.4312676 275.456402,27.5040431 275.658038,27.5040431 L279.13624,27.5040431 Z" id="DATA" fill="#0F2560" fill-rule="nonzero"></path>
                <path d="M182,0 L182,51.2333333" id="Line" stroke="#87A8AD" opacity="0.5" stroke-linecap="square"></path>
                <g id="standard-reduc-2-copy" transform="translate(0.000000, 6.000000)">
                    <polygon id="Fill-1" fill="#DA352A" points="121.615385 17.6086957 127.5 17.6086957 127.5 12.7201765 127.5 7.83165732 127.5 4.88851917 127.5 0 121.615385 0 121.615385 4.88851917 121.615385 7.83165732 121.615385 12.7201765"></polygon>
                    <g id="Group-8">
                        <path d="M152.646421,13.3994625 C152.646421,8.7730875 148.919938,5.0223375 144.323594,5.0223375 L144.323594,10.2580875 C146.04727,10.2580875 147.444421,11.6647125 147.444421,13.3994625 L147.445167,13.3994625 L147.445167,16.2247125 L141.17254,16.2247125 L141.17254,20.7029625 L152.635599,20.7029625 L152.635599,18.6217125 L152.635599,16.2247125 L152.635599,13.3994625 L152.646421,13.3994625 Z M127.270438,10.2498375 L132.47393,10.2498375 L132.47393,5.0208375 L127.270438,5.0208375 L127.270438,10.2498375 Z M107.536796,10.2580875 L107.536796,5.0223375 C102.940452,5.0223375 99.2139695,8.7730875 99.2139695,13.3994625 L99.2139695,18.6284625 L99.2139695,23.8574625 L104.417462,23.8574625 L104.417462,18.6284625 L104.417462,13.3994625 L104.41597,13.3994625 C104.41597,11.6647125 105.813121,10.2580875 107.536796,10.2580875 L107.536796,10.2580875 Z M92.736472,32.2225875 C94.8601866,32.2023375 96.7883598,31.3822125 98.2500695,30.0524625 L94.5851598,26.3144625 C94.0653329,26.7265875 93.4193744,26.9823375 92.7084841,26.9943375 C90.9978695,26.9789625 89.615272,25.5809625 89.615272,23.8559625 L84.4136451,23.8559625 C84.4136451,28.4823375 88.1397549,32.2327125 92.736472,32.2327125 L92.736472,32.2225875 Z M79.2414988,23.8574625 L79.2414988,18.6284625 L74.0376329,18.6284625 L74.0376329,23.8574625 L74.0394988,23.8574625 C74.0394988,25.5922125 72.6419744,26.9988375 70.9182988,26.9988375 L70.9182988,32.2342125 C75.5150159,32.2342125 79.2414988,28.4838375 79.2414988,23.8574625 L79.2414988,23.8574625 Z M53.1408183,18.6284625 L58.344311,18.6284625 L58.344311,13.3994625 C58.344311,8.7730875 54.617828,5.0223375 50.021111,5.0223375 L50.021111,10.2580875 C51.7451598,10.2580875 53.142311,11.6647125 53.142311,13.3994625 L53.1408183,13.3994625 L53.1408183,18.6284625 Z M50.021111,26.9988375 C48.3030329,26.9988375 46.9107329,25.6008375 46.9017768,23.8735875 L46.9017768,23.8574625 L46.9002841,23.8574625 L41.6982841,23.8574625 L41.6982841,29.0864625 L41.6982841,34.3154625 L41.6982841,39.5444625 L41.6982841,44.7734625 L46.9017768,44.7734625 L46.9017768,39.5444625 L46.9017768,34.3154625 L46.9017768,31.6203375 C47.8656768,32.0133375 48.917272,32.2342125 50.021111,32.2342125 L50.021111,26.9988375 Z M32.3529695,23.8574625 L37.5564622,23.8574625 L37.5564622,18.6284625 L37.5564622,13.3994625 C37.5564622,8.7730875 33.8299793,5.0223375 29.2332622,5.0223375 L29.2332622,10.2580875 C30.957311,10.2580875 32.3544622,11.6647125 32.3544622,13.3994625 L32.3529695,13.3994625 L32.3529695,18.6284625 L32.3529695,23.8574625 Z M26.1124354,23.8574625 L26.113928,23.8574625 L26.113928,18.6284625 L20.9104354,18.6284625 L20.9104354,23.8574625 C20.9104354,28.4838375 24.6365451,32.2342125 29.2332622,32.2342125 L29.2332622,26.9988375 C27.5095866,26.9988375 26.1124354,25.5922125 26.1124354,23.8574625 L26.1124354,23.8574625 Z M16.7290573,23.8574625 L16.7290573,18.6284625 L11.5255646,18.6284625 L11.5255646,23.8574625 L11.5274305,23.8574625 C11.5274305,25.5922125 10.1299061,26.9988375 8.40623049,26.9988375 L8.40623049,32.2342125 C13.0029476,32.2342125 16.7290573,28.4838375 16.7290573,23.8574625 L16.7290573,23.8574625 Z M8.40623049,10.2580875 L8.40623049,5.0223375 C3.80951341,5.0223375 0.0834036585,8.7730875 0.0834036585,13.3994625 L0.0834036585,18.6284625 L0.0834036585,23.8574625 L5.28689634,23.8574625 L5.28689634,18.6284625 L5.28689634,13.3994625 L5.28503049,13.3994625 C5.28503049,11.6647125 6.68255488,10.2580875 8.40623049,10.2580875 L8.40623049,10.2580875 Z" id="Fill-2" fill="#4C463C"></path>
                        <path d="M152.460395,23.870625 L147.250185,23.870625 C147.250185,25.55475 145.92431,26.9175 144.264446,26.992875 C142.568759,26.960625 141.202207,25.572 141.202207,23.8575 L141.204073,23.8575 L141.204073,20.703 L136.00058,20.703 L136.00058,23.8575 C136.00058,28.416375 139.620337,32.1165 144.124134,32.224125 L144.124134,32.23425 C144.158093,32.23425 144.190559,32.22975 144.224144,32.229375 C144.257356,32.22975 144.289822,32.23425 144.323407,32.23425 L144.323407,32.224125 C148.834295,32.116875 152.460395,28.422375 152.460395,23.870625 L152.460395,23.870625 Z M113.258063,29.931 C114.750373,31.354875 116.761017,32.23425 118.979517,32.23425 L118.979517,26.998875 C117.2592,26.998875 115.865407,25.59825 115.859437,23.868375 C115.859437,23.864625 115.85981,23.86125 115.85981,23.8575 L115.85981,18.6285 L110.656317,18.6285 L110.656317,23.8575 C110.656317,23.86125 110.657063,23.864625 110.657063,23.868375 C110.651093,25.59825 109.256927,26.998875 107.536983,26.998875 L107.536983,32.23425 C109.755483,32.23425 111.766127,31.354875 113.258063,29.931 L113.258063,29.931 Z M84.405622,12.90375 L89.6091146,12.90375 L89.6091146,8.274 L89.6091146,5.12625 L89.6038902,5.12625 L89.6038902,0.121125 L84.4003976,0.121125 L84.4003976,5.350125 L84.405622,5.350125 L84.405622,8.274 L84.405622,12.90375 Z M62.5952854,23.8575 L67.798778,23.8575 L67.798778,18.6285 L67.798778,13.3995 L67.798778,8.1705 L67.798778,5.022375 L62.5952854,5.022375 L62.5952854,8.1705 L62.5952854,13.3995 L62.5952854,18.6285 L62.5952854,23.8575 Z M50.0212976,10.258125 L50.0212976,5.022375 C45.4245805,5.022375 41.6980976,8.773125 41.6980976,13.3995 L41.6980976,18.6285 L41.6980976,23.8575 L46.9015902,23.8575 L46.9015902,18.6285 L46.9015902,13.3995 L46.9000976,13.3995 C46.9000976,11.66475 48.297622,10.258125 50.0212976,10.258125 L50.0212976,10.258125 Z M37.5562756,23.8575 L32.3546488,23.8575 C32.3546488,25.59225 30.9571244,26.998875 29.2334488,26.998875 L29.2334488,32.23425 C33.8301659,32.23425 37.5562756,28.483875 37.5562756,23.8575 L37.5562756,23.8575 Z M11.5257512,18.6285 L16.7210341,18.6285 L16.7210341,13.3995 C16.7210341,8.773125 12.9945512,5.022375 8.39783415,5.022375 L8.39783415,10.258125 C10.1215098,10.258125 11.5190341,11.66475 11.5190341,13.3995 L11.5171683,13.3995 L11.5171683,18.6285 L11.5257512,18.6285 Z" id="Fill-4" fill="#DA352A"></path>
                        <path d="M144.323445,10.258125 L144.323445,5.022375 C139.726728,5.022375 136.000618,8.773125 136.000618,13.3995 L136.000618,18.6285 L136.000618,20.703 L141.20411,20.703 L141.20411,18.6285 L141.20411,13.3995 L141.202245,13.3995 C141.202245,11.664375 142.599769,10.258125 144.323445,10.258125 L144.323445,10.258125 Z M130.389996,32.23275 L130.389996,26.997375 C128.665947,26.997375 127.268796,25.59075 127.268796,23.855625 L127.270289,23.855625 L127.270289,18.627 L122.066796,18.627 L122.066796,23.855625 C122.066796,28.482375 125.793279,32.23275 130.389996,32.23275 L130.389996,32.23275 Z M110.656354,18.6285 L115.859847,18.6285 L115.859847,13.3995 C115.859847,8.773125 112.133737,5.022375 107.53702,5.022375 L107.53702,10.258125 C109.260696,10.258125 110.65822,11.664375 110.65822,13.3995 L110.656354,13.3995 L110.656354,18.6285 Z M107.53702,26.998875 C105.813345,26.998875 104.41582,25.59225 104.41582,23.8575 L99.2138202,23.8575 C99.2138202,28.483875 102.940303,32.23425 107.53702,32.23425 L107.53702,26.998875 Z M84.4056593,23.961375 L89.609152,23.961375 L89.609152,12.904125 L84.4056593,12.904125 L84.4056593,23.961375 Z M74.0378568,18.6285 L79.2413495,18.6285 L79.2413495,13.3995 L79.2413495,8.1705 L79.2413495,5.022375 L74.0378568,5.022375 L74.0378568,8.1705 L74.0378568,13.3995 L74.0378568,18.6285 Z M70.9185227,32.23425 L70.9185227,26.998875 C69.1944739,26.998875 67.7973227,25.59225 67.7973227,23.8575 L62.5953227,23.8575 C62.5953227,28.483875 66.3218056,32.23425 70.9185227,32.23425 L70.9185227,32.23425 Z M58.3441617,23.8575 L58.3441617,18.6285 L53.140669,18.6285 L53.140669,23.8575 L53.1425349,23.8575 C53.1425349,25.59225 51.7450105,26.998875 50.0213349,26.998875 L50.0213349,32.23425 C54.618052,32.23425 58.3441617,28.483875 58.3441617,23.8575 L58.3441617,23.8575 Z M29.2334861,10.258125 L29.2334861,5.022375 C24.636769,5.022375 20.9102861,8.773125 20.9102861,13.3995 L20.9102861,18.6285 L26.1137788,18.6285 L26.1137788,13.3995 L26.1122861,13.3995 C26.1122861,11.664375 27.5098105,10.258125 29.2334861,10.258125 L29.2334861,10.258125 Z M5.28674707,31.620375 C6.25064707,32.013375 7.3022422,32.23425 8.40608122,32.23425 L8.40608122,26.998875 C6.68800317,26.998875 5.29570317,25.600875 5.28674707,23.873625 L5.28674707,23.8575 L5.28525439,23.8575 L0.0832543902,23.8575 L0.0832543902,29.0865 L0.0832543902,34.3155 L0.0832543902,39.5445 L0.0832543902,44.7735 L5.28674707,44.7735 L5.28674707,39.5445 L5.28674707,34.3155 L5.28674707,31.620375 Z" id="Fill-6" fill="#1A8294"></path>
                    </g>
                </g>
            </g>
        </g>
    </g>
</svg>