<?xml version="1.0" encoding="UTF-8" standalone="no"?>
<svg width="191px" height="32px" viewBox="0 0 191 32" version="1.1" xmlns="http://www.w3.org/2000/svg" xmlns:xlink="http://www.w3.org/1999/xlink">
    <!-- Generator: Sketch 42 (36781) - http://www.bohemiancoding.com/sketch -->
    <title>the-cocktail@2x</title>
    <desc>Created with Sketch.</desc>
    <defs/>
    <g id="Page-1" stroke="none" stroke-width="1" fill="none" fill-rule="evenodd">
        <g id="the-cocktail" fill-rule="nonzero">
            <g id="the-cocktail-logo">
                <g id="OK">
                    <g id="01_HOME">
                        <g id="Oval-10-+-Group-Copy">
                            <ellipse id="Oval-10" fill="#FFFFFF" cx="14.8679868" cy="16.3333333" rx="13.1188119" ry="12.8018018"/>
                            <g id="Group" transform="translate(0.000000, 0.140378)">
                                <rect id="Rectangle-path" fill="#000000" x="166.935028" y="5.67567568" width="3.6680791" height="3.78378378"/>
                                <path d="M43.4180791,23.7621622 C41.6963277,23.9135135 40.1991525,23.2324324 40.1991525,20.5837838 L40.1991525,13.4702703 L43.4180791,13.4702703 L43.4180791,11.1243243 L40.1991525,11.1243243 L40.1991525,5.67567568 L37.8785311,5.67567568 L37.8785311,11.1243243 L35.9322034,11.1243243 L35.9322034,13.4702703 L37.8785311,13.4702703 L37.8785311,20.5837838 C37.8785311,24.3675676 40.1242938,26.4108108 43.4180791,26.0324324 L43.4180791,23.7621622 L43.4180791,23.7621622 Z" id="Shape" fill="#000000"/>
                                <path d="M57.7161017,16.9513514 C57.7161017,13.3189189 55.6949153,10.7459459 52.1765537,10.7459459 C50.4548023,10.7459459 49.0324859,11.427027 48.059322,12.6378378 L48.059322,5.67567568 L45.6638418,5.67567568 L45.6638418,25.8054054 L48.059322,25.8054054 L48.059322,16.8 C48.059322,14.6054054 49.6313559,12.9405405 51.8022599,12.9405405 C54.1228814,12.9405405 55.3206215,14.5297297 55.3206215,16.8756757 L55.3206215,25.8054054 L57.6412429,25.8054054 L57.6412429,16.9513514 L57.7161017,16.9513514 Z" id="Shape" fill="#000000"/>
                                <path d="M70.8163842,21.4918919 C70.0677966,23.2324324 68.5706215,24.2162162 66.549435,24.2162162 C64.1539548,24.2162162 61.9081921,22.4 61.5338983,19.372973 L73.6610169,19.372973 C73.6610169,14.1513514 70.1426554,10.972973 66.3997175,10.972973 C62.4322034,10.972973 59.1384181,14.4540541 59.1384181,18.6918919 C59.1384181,23.0054054 62.3573446,26.4108108 66.549435,26.4108108 C69.9180791,26.4108108 72.3135593,24.6702703 73.3615819,21.4918919 L70.8163842,21.4918919 M61.6836158,17.1783784 C62.2824859,14.6810811 64.3785311,13.1675676 66.3997175,13.1675676 C68.4957627,13.1675676 70.4420904,14.7567568 71.0409605,17.1783784" id="Shape" fill="#000000"/>
                                <path d="M93.6483051,21.0378378 L89.7556497,21.0378378 C89.3064972,22.0972973 88.1087571,22.9297297 86.7612994,22.9297297 C84.740113,22.9297297 83.0932203,21.0378378 83.0932203,18.6918919 C83.0932203,16.3459459 84.740113,14.3783784 86.7612994,14.3783784 C88.1087571,14.3783784 89.2316384,15.2108108 89.7556497,16.2702703 L93.6483051,16.2702703 C92.8248588,12.9405405 90.2048023,10.972973 86.7612994,10.972973 C82.4194915,10.972973 79.3502825,14.4540541 79.3502825,18.6918919 C79.3502825,23.0054054 82.4194915,26.4108108 86.7612994,26.4108108 C90.2048023,26.3351351 92.8248588,24.3675676 93.6483051,21.0378378 L93.6483051,21.0378378 Z" id="Shape" fill="#000000"/>
                                <path d="M103.080508,22.9297297 C105.026836,22.9297297 106.673729,21.1891892 106.673729,18.7675676 C106.673729,16.1945946 105.101695,14.4540541 103.080508,14.4540541 C101.059322,14.4540541 99.5621469,16.1945946 99.5621469,18.7675676 C99.5621469,21.2648649 101.134181,22.9297297 103.080508,22.9297297 L103.080508,22.9297297 Z M103.080508,10.972973 C107.048023,10.972973 110.341808,14.3027027 110.341808,18.6918919 C110.341808,23.0810811 107.048023,26.4108108 103.080508,26.4108108 C99.1129944,26.4108108 95.819209,23.1567568 95.819209,18.6918919 C95.8940678,14.3027027 99.1129944,10.972973 103.080508,10.972973 L103.080508,10.972973 Z" id="Shape" fill="#000000"/>
                                <path d="M125.912429,21.0378378 L121.944915,21.0378378 C121.495763,22.0972973 120.298023,22.9297297 118.950565,22.9297297 C116.929379,22.9297297 115.282486,21.0378378 115.282486,18.6918919 C115.282486,16.3459459 116.929379,14.3783784 118.950565,14.3783784 C120.298023,14.3783784 121.420904,15.2108108 121.944915,16.2702703 L125.837571,16.2702703 C125.014124,12.9405405 122.394068,10.972973 118.950565,10.972973 C114.608757,10.972973 111.539548,14.4540541 111.539548,18.6918919 C111.539548,23.0054054 114.608757,26.4108108 118.950565,26.4108108 C122.468927,26.3351351 125.088983,24.3675676 125.912429,21.0378378 L125.912429,21.0378378 Z" id="Shape" fill="#000000"/>
                                <polygon id="Shape" fill="#000000" points="133.548023 19.6 137.066384 25.8054054 141.782486 25.8054054 136.09322 16.8 141.483051 11.0486486 136.392655 11.0486486 131.676554 16.4216216 131.676554 5.67567568 128.008475 5.67567568 128.008475 25.8054054 131.676554 25.8054054 131.676554 21.5675676"/>
                                <path d="M160.721751,18.6918919 C160.721751,16.3459459 159.074859,14.4540541 157.053672,14.4540541 C155.032486,14.4540541 153.385593,16.2702703 153.385593,18.6918919 C153.385593,21.0378378 155.032486,22.8540541 157.053672,22.8540541 C159.149718,22.8540541 160.721751,20.9621622 160.721751,18.6918919 L160.721751,18.6918919 Z M164.838983,11.2756757 L164.838983,26.1081081 L160.946328,26.1081081 L160.946328,24.4432432 C159.823446,25.6540541 158.251412,26.3351351 156.529661,26.3351351 C152.786723,26.3351351 149.717514,23.0054054 149.717514,18.6918919 C149.717514,14.3027027 152.786723,10.972973 156.529661,10.972973 C158.326271,10.972973 159.823446,11.6540541 160.946328,12.8648649 L160.946328,11.2756757 L164.838983,11.2756757 L164.838983,11.2756757 Z" id="Shape" fill="#000000"/>
                                <rect id="Rectangle-path" fill="#000000" x="166.935028" y="10.972973" width="3.6680791" height="14.6810811"/>
                                <rect id="Rectangle-path" fill="#000000" x="172.923729" y="5.67567568" width="3.6680791" height="20.1297297"/>
                                <path d="M28.8206215,0.378378378 L1.79661017,0.378378378 C0.823446328,0.378378378 0,1.21081081 0,2.19459459 L0,29.5135135 C0,30.6486486 0.823446328,31.3297297 1.79661017,31.3297297 L28.8206215,31.3297297 C29.7937853,31.3297297 30.6172316,30.572973 30.6172316,29.5135135 L30.6172316,2.19459459 C30.6920904,1.21081081 29.8686441,0.378378378 28.8206215,0.378378378 L28.8206215,0.378378378 Z M22.0833333,23.0054054 C17.4420904,27.772973 10.480226,28.4540541 6.73728814,24.5945946 C2.84463277,20.6594595 3.59322034,13.6216216 8.23446328,8.85405405 C12.8008475,4.08648649 19.7627119,3.32972973 23.5056497,7.26486486 C27.3983051,11.1243243 26.6497175,18.2378378 22.0833333,23.0054054 L22.0833333,23.0054054 Z" id="Shape" fill="#747474"/>
                                <path d="M8.24382062,20.2047587 L9.21698446,21.1128668 L10.1152895,20.2047587 C10.5644421,19.7507047 11.1633121,20.4317858 10.7141596,20.8101641 L9.81585452,21.7182722 L10.7141596,22.702056 C11.1633121,23.1561101 10.4895833,23.7615155 10.1152895,23.3074614 L9.21698446,22.3993533 L8.24382062,23.3831371 C7.79466808,23.8371912 7.19579802,23.1561101 7.64495056,22.7777317 L8.54325565,21.7939479 L7.64495056,20.8858398 C7.19579802,20.4317858 7.86952684,19.7507047 8.24382062,20.2047587 L8.24382062,20.2047587 Z" id="Shape" fill="#747474"/>
                                <path d="M148.819209,22.5513514 C146.94774,22.7027027 145.75,21.8702703 145.75,19.7513514 L145.75,14.3783784 L148.669492,14.3783784 L148.669492,11.0486486 L145.75,11.0486486 L145.75,5.67567568 L142.231638,5.67567568 L142.231638,19.6756757 C142.231638,23.8378378 144.55226,26.4864865 148.819209,26.0324324 L148.819209,22.5513514 L148.819209,22.5513514 Z" id="Shape" fill="#000000"/>
                            </g>
                        </g>
                    </g>
                </g>
            </g>
            <g id="RegisteredTM" transform="translate(182.000000, 1.000000)" fill="#000000">
                <path d="M4.5,8.97727273 C2.02727055,8.97727273 0.0227272727,6.97272945 0.0227272727,4.5 C0.0227272727,2.02727055 2.02727055,0.0227272727 4.5,0.0227272727 C6.97272945,0.0227272727 8.97727273,2.02727055 8.97727273,4.5 C8.97727273,6.97272945 6.97272945,8.97727273 4.5,8.97727273 Z M4.5,8.06818182 C6.4706524,8.06818182 8.06818182,6.4706524 8.06818182,4.5 C8.06818182,2.5293476 6.4706524,0.931818182 4.5,0.931818182 C2.5293476,0.931818182 0.931818182,2.5293476 0.931818182,4.5 C0.931818182,6.4706524 2.5293476,8.06818182 4.5,8.06818182 Z" id="Oval"/>
                <path d="M4.25454545,4.13636364 C4.50454545,4.13636364 4.68636364,4.08636364 4.79545455,3.99090909 C4.90454545,3.9 4.96363636,3.74545455 4.96363636,3.52727273 C4.96363636,3.31363636 4.90454545,3.16363636 4.79545455,3.06818182 C4.68636364,2.97727273 4.50454545,2.93181818 4.25454545,2.93181818 L3.74545455,2.93181818 L3.74545455,4.13636364 L4.25454545,4.13636364 M3.74545455,4.96818182 L3.74545455,6.74090909 L2.53636364,6.74090909 L2.53636364,2.05454545 L4.38181818,2.05454545 C5,2.05454545 5.45,2.15909091 5.73636364,2.36818182 C6.02727273,2.57272727 6.16818182,2.9 6.16818182,3.35 C6.16818182,3.65909091 6.09545455,3.91363636 5.94545455,4.11363636 C5.79545455,4.30909091 5.57272727,4.45909091 5.26818182,4.55 C5.43636364,4.59090909 5.58181818,4.67727273 5.71363636,4.80909091 C5.84545455,4.94090909 5.97727273,5.14090909 6.10909091,5.41363636 L6.76818182,6.74090909 L5.48181818,6.74090909 L4.90909091,5.57727273 C4.79545455,5.34545455 4.67727273,5.18181818 4.55909091,5.1 C4.44090909,5.01363636 4.28181818,4.96818182 4.08636364,4.96818182 L3.74545455,4.96818182" id="Shape"/>
            </g>
        </g>
    </g>
</svg>