<svg width="473" height="146" viewBox="0 0 473 146" fill="none" xmlns="http://www.w3.org/2000/svg">
<path d="M390.547 50.227H404.491V36.283V22.339V13.944V0H390.547V13.944V22.339V36.283V50.227Z" fill="#EE3624"/>
<path d="M472.492 36.287C472.492 23.95 462.507 13.949 450.189 13.949V27.91C454.808 27.91 458.553 31.661 458.553 36.287L458.554 43.821H441.746V55.763H472.463V50.214V43.821V36.287H472.492ZM404.491 27.888H418.435V13.944H404.491V27.888ZM351.611 27.91V13.948C339.293 13.948 329.307 23.949 329.307 36.286V50.23V64.174H343.251V50.231V36.287H343.247C343.247 31.661 346.991 27.91 351.611 27.91ZM311.949 86.482C317.64 86.428 322.808 84.241 326.724 80.695L316.904 70.727C315.511 71.826 313.779 72.508 311.874 72.54C307.291 72.499 303.586 68.772 303.586 64.171H289.646C289.646 76.508 299.631 86.509 311.949 86.509V86.482ZM275.786 64.175V50.231H261.842V64.175H261.846C261.846 68.802 258.102 72.552 253.482 72.552V86.514C265.8 86.514 275.786 76.512 275.786 64.175ZM205.843 50.231H219.787V36.287C219.787 23.95 209.802 13.949 197.484 13.949V27.91C202.103 27.91 205.848 31.661 205.848 36.287H205.843V50.231ZM197.484 72.552C192.879 72.552 189.148 68.824 189.124 64.218V64.175H189.12H175.18V78.119V92.063V106.007V119.951H189.124V106.007V92.063V84.876C191.708 85.924 194.525 86.514 197.484 86.514V72.552ZM150.137 64.175H164.081V50.231V36.287C164.081 23.95 154.096 13.949 141.778 13.949V27.91C146.397 27.91 150.141 31.661 150.141 36.287H150.137V50.231V64.175ZM133.414 64.175H133.418V50.231H119.474V64.175C119.474 76.512 129.46 86.514 141.778 86.514V72.552C137.158 72.552 133.414 68.802 133.414 64.175ZM108.27 64.175V50.231H94.326V64.175H94.33C94.33 68.802 90.586 72.552 85.966 72.552V86.514C98.284 86.514 108.27 76.512 108.27 64.175ZM85.966 27.91V13.948C73.648 13.948 63.663 23.949 63.663 36.286V50.23V64.174H77.607V50.231V36.287H77.603C77.603 31.661 81.347 27.91 85.966 27.91Z" fill="#554D42"/>
<path d="M471.994 64.2099H458.032C458.032 68.7009 454.479 72.3359 450.031 72.5359C445.487 72.4499 441.825 68.7479 441.825 64.1749H441.829V55.7629H427.885V64.1749C427.885 76.3319 437.586 86.1999 449.655 86.4869V86.5139C449.745 86.5139 449.833 86.5009 449.923 86.4999L450.189 86.5139V86.4869C462.277 86.2009 471.994 76.3479 471.994 64.2099ZM366.942 80.3709C370.94 84.1689 376.328 86.5139 382.274 86.5139V72.5519C377.664 72.5519 373.929 68.8169 373.913 64.2039L373.914 64.1749V50.2309H359.97V64.1749L359.972 64.2039C359.956 68.8169 356.22 72.5519 351.611 72.5519V86.5139C357.556 86.5139 362.944 84.1689 366.942 80.3709ZM289.625 34.9659H303.569V22.6199V14.2249H303.555V0.87793H289.611V14.8219H289.625V22.6199V34.9659ZM231.179 64.1749H245.123V50.2309V36.2869V22.3429V13.9489H231.179V22.3429V36.2869V50.2309V64.1749ZM197.484 27.9099V13.9489C185.166 13.9489 175.18 23.9499 175.18 36.2869V50.2309V64.1749H189.124V50.2309V36.2869H189.12C189.12 31.6609 192.864 27.9099 197.484 27.9099ZM164.081 64.1749H150.142C150.142 68.8019 146.397 72.5519 141.778 72.5519V86.5139C154.096 86.5139 164.081 76.5119 164.081 64.1749ZM94.326 50.2309H108.247V36.2869C108.247 23.9499 98.262 13.9489 85.944 13.9489V27.9099C90.563 27.9099 94.308 31.6609 94.308 36.2869H94.303V50.2309H94.326ZM34.392 119.993H52.467V119.871V108.512V107.512H34.392V101.914C34.392 94.2279 33.111 90.6699 30.193 87.1119C27.489 83.7669 22.081 81.5609 16.886 81.5609C11.691 81.5609 6.567 83.6959 3.436 87.5389C1.612 89.9149 0.001 92.5959 0 97.8479C0.002 102.238 1.582 107.832 1.582 113.752C1.582 119.673 0.002 125.12 0 129.657C0.002 134.892 1.613 137.589 3.436 139.966C6.567 143.809 11.691 145.944 16.886 145.944C22.081 145.944 27.489 143.738 30.193 140.393C33.111 136.835 34.392 133.277 34.392 125.591V119.993ZM25.242 99.4349C25.242 103.854 21.66 107.436 17.241 107.436C12.822 107.436 9.24 103.854 9.24 99.4349C9.24 95.0159 12.822 91.4339 17.241 91.4339C21.66 91.4339 25.242 95.0159 25.242 99.4349ZM25.242 128.173C25.242 132.592 21.66 136.174 17.241 136.174C12.822 136.174 9.24 132.592 9.24 128.173C9.24 123.754 12.822 120.172 17.241 120.172C21.66 120.172 25.242 123.754 25.242 128.173Z" fill="#EE3624"/>
<path d="M450.189 27.91V13.948C437.871 13.948 427.885 23.949 427.885 36.286V50.23V55.762H441.829V50.23V36.287H441.825C441.825 31.661 445.57 27.91 450.189 27.91ZM412.851 86.509V72.548C408.231 72.548 404.487 68.797 404.487 64.171H404.491V50.227H390.547V64.171C390.547 76.508 400.533 86.509 412.851 86.509ZM359.97 50.231H373.914V36.287C373.914 23.95 363.929 13.949 351.611 13.949V27.91C356.23 27.91 359.975 31.661 359.975 36.287H359.97V50.231ZM351.611 72.552C346.991 72.552 343.247 68.802 343.247 64.175H329.307C329.307 76.512 339.293 86.514 351.611 86.514V72.552ZM289.625 64.452H303.569V34.966H289.625V64.452ZM261.842 50.231H275.786V36.287V22.343V13.949H261.842V22.343V36.287V50.231ZM253.482 86.514V72.552C248.863 72.552 245.119 68.802 245.119 64.175H231.179C231.179 76.512 241.165 86.514 253.482 86.514ZM219.787 64.175V50.231H205.843V64.175H205.848C205.848 68.802 202.103 72.552 197.484 72.552V86.514C209.802 86.514 219.787 76.512 219.787 64.175ZM141.778 27.91V13.948C129.46 13.948 119.474 23.949 119.474 36.286V50.23H133.418V36.287H133.414C133.414 31.661 137.158 27.91 141.778 27.91ZM77.607 84.876C80.19 85.924 83.008 86.514 85.966 86.514V72.552C81.362 72.552 77.631 68.824 77.607 64.218V64.175H77.603H63.663V78.119V92.063V106.007V119.951H77.607V106.007V92.063V84.876Z" fill="#038BA4"/>
</svg>
