<?xml version="1.0" encoding="UTF-8"?>
<!-- Generator: Adobe Illustrator 16.0.0, SVG Export Plug-In . SVG Version: 6.00 Build 0)  -->
<!DOCTYPE svg PUBLIC "-//W3C//DTD SVG 1.1//EN" "http://www.w3.org/Graphics/SVG/1.1/DTD/svg11.dtd">
<svg version="1.1" id="Capa_1" xmlns="http://www.w3.org/2000/svg" xmlns:xlink="http://www.w3.org/1999/xlink" x="0px" y="0px" width="152px" height="67px" viewBox="0 0 152 67" enable-background="new 0 0 152 67" xml:space="preserve">
<path fill="#7d7d7d" d="M50.104,39.298c0,0.509-0.09,0.978-0.271,1.396c-0.181,0.425-0.431,0.784-0.753,1.083  c-0.318,0.3-0.699,0.533-1.136,0.7c-0.434,0.167-0.906,0.248-1.409,0.248c-0.5,0-0.968-0.081-1.408-0.248  c-0.437-0.167-0.81-0.4-1.128-0.7c-0.313-0.299-0.564-0.658-0.746-1.083c-0.181-0.418-0.269-0.887-0.269-1.396v-6.583h1.504v6.512  c0,0.667,0.181,1.196,0.555,1.578c0.374,0.381,0.871,0.568,1.492,0.568c0.622,0,1.123-0.187,1.495-0.568  c0.384-0.381,0.571-0.911,0.571-1.578v-6.512h1.503V39.298z"/>
<path fill="#7d7d7d" d="M60.258,32.673h1.507v1.504h-1.507V32.673z M60.302,35.571h1.419v7.068h-1.419V35.571z M56.699,42.645  v-4.307c0-0.551-0.135-0.955-0.407-1.2c-0.277-0.254-0.61-0.379-1.012-0.379c-0.399,0-0.745,0.129-1.032,0.384  c-0.289,0.256-0.434,0.652-0.434,1.195v4.307h-1.422v-7.072h1.396v0.711c0.244-0.268,0.528-0.469,0.859-0.599  c0.329-0.129,0.671-0.193,1.024-0.193c0.36,0,0.689,0.052,0.979,0.165c0.297,0.116,0.548,0.267,0.761,0.476  c0.269,0.268,0.459,0.568,0.558,0.899c0.103,0.33,0.157,0.696,0.157,1.095v4.519H56.699z"/>
<path fill="#7d7d7d" d="M68.022,39.102c0-0.315-0.018-0.615-0.052-0.895c-0.031-0.285-0.101-0.539-0.198-0.75  c-0.104-0.215-0.255-0.38-0.446-0.509c-0.198-0.128-0.452-0.189-0.77-0.189c-0.324,0-0.585,0.061-0.774,0.189  c-0.189,0.128-0.338,0.293-0.443,0.509c-0.108,0.211-0.178,0.465-0.211,0.75c-0.034,0.28-0.048,0.58-0.048,0.895  c0,0.319,0.014,0.613,0.048,0.899c0.033,0.282,0.103,0.536,0.211,0.75c0.105,0.221,0.253,0.392,0.443,0.519  c0.188,0.125,0.45,0.188,0.774,0.188c0.318,0,0.572-0.063,0.77-0.188c0.191-0.127,0.342-0.298,0.446-0.519  c0.097-0.215,0.167-0.469,0.198-0.75C68.004,39.715,68.022,39.42,68.022,39.102 M68.048,42.645v-0.757  c-0.269,0.326-0.55,0.549-0.843,0.664c-0.294,0.118-0.631,0.176-1.021,0.176c-0.356,0-0.684-0.054-0.984-0.168  c-0.305-0.114-0.551-0.265-0.748-0.459c-0.177-0.174-0.319-0.38-0.425-0.613c-0.106-0.232-0.187-0.482-0.243-0.742  c-0.054-0.266-0.092-0.543-0.107-0.821c-0.016-0.279-0.016-0.552-0.016-0.821c0-0.272,0-0.545,0.016-0.822  c0.015-0.278,0.053-0.55,0.107-0.806c0.057-0.265,0.137-0.512,0.243-0.743c0.106-0.231,0.249-0.433,0.425-0.611  c0.196-0.198,0.439-0.347,0.74-0.463c0.3-0.112,0.622-0.165,0.975-0.165c0.384,0,0.72,0.052,1.019,0.165  c0.295,0.116,0.574,0.325,0.837,0.627v-3.569h1.422v9.93H68.048z"/>
<path fill="#7d7d7d" d="M75.478,39.518h-1.656c-0.417,0-0.736,0.087-0.948,0.268c-0.214,0.176-0.319,0.427-0.319,0.753  s0.105,0.575,0.313,0.746c0.208,0.171,0.537,0.257,0.982,0.257c0.27,0,0.513-0.019,0.726-0.063c0.214-0.04,0.413-0.152,0.6-0.34  c0.202-0.205,0.303-0.554,0.303-1.045V39.518z M75.509,42.645v-0.642c-0.263,0.261-0.528,0.441-0.811,0.556  c-0.279,0.114-0.634,0.168-1.071,0.168c-0.444,0-0.822-0.049-1.124-0.16c-0.303-0.108-0.559-0.268-0.773-0.483  c-0.369-0.39-0.557-0.895-0.557-1.517c0-0.596,0.205-1.082,0.61-1.465c0.404-0.38,1.01-0.572,1.831-0.572h1.864v-0.497  c0-0.449-0.115-0.779-0.353-1.001c-0.237-0.218-0.634-0.329-1.19-0.329c-0.39,0-0.698,0.052-0.92,0.157  c-0.224,0.1-0.431,0.278-0.627,0.524l-0.933-0.873c0.329-0.391,0.695-0.659,1.08-0.803c0.385-0.143,0.87-0.216,1.453-0.216  c1.944,0,2.917,0.809,2.917,2.422v4.731H75.509z"/>
<path fill="#7d7d7d" d="M83.117,39.102c0-0.315-0.021-0.615-0.052-0.895c-0.036-0.285-0.1-0.539-0.202-0.75  c-0.104-0.215-0.25-0.38-0.447-0.509c-0.191-0.128-0.451-0.189-0.764-0.189c-0.326,0-0.585,0.061-0.774,0.189  c-0.191,0.128-0.34,0.293-0.447,0.509c-0.104,0.211-0.176,0.465-0.21,0.75c-0.029,0.28-0.047,0.58-0.047,0.895  c0,0.319,0.018,0.613,0.047,0.899c0.034,0.282,0.107,0.536,0.21,0.75c0.107,0.221,0.256,0.392,0.447,0.519  c0.189,0.125,0.448,0.188,0.774,0.188c0.313,0,0.573-0.063,0.764-0.188c0.197-0.127,0.344-0.298,0.447-0.519  c0.102-0.215,0.166-0.469,0.202-0.75C83.096,39.715,83.117,39.42,83.117,39.102 M83.141,42.645v-0.757  c-0.27,0.326-0.549,0.549-0.843,0.664c-0.29,0.118-0.633,0.176-1.025,0.176c-0.353,0-0.681-0.054-0.981-0.168  c-0.303-0.114-0.549-0.265-0.747-0.459c-0.177-0.174-0.315-0.38-0.424-0.613c-0.105-0.232-0.188-0.482-0.24-0.742  c-0.061-0.266-0.096-0.543-0.107-0.821c-0.016-0.279-0.024-0.552-0.024-0.821c0-0.272,0.008-0.545,0.024-0.822  c0.011-0.278,0.046-0.55,0.107-0.806c0.052-0.265,0.134-0.512,0.24-0.743c0.108-0.231,0.247-0.433,0.424-0.611  c0.198-0.198,0.443-0.347,0.741-0.463c0.298-0.112,0.623-0.165,0.977-0.165c0.379,0,0.72,0.052,1.02,0.165  c0.293,0.116,0.572,0.325,0.835,0.627v-3.569h1.419v9.93H83.141z"/>
<polygon fill="#7d7d7d" points="90.324,42.645 90.324,32.715 96.671,32.715 96.671,34.069 91.83,34.069 91.83,36.968 95.958,36.968   95.958,38.305 91.83,38.305 91.83,41.29 96.671,41.29 96.671,42.645 "/>
<path fill="#7d7d7d" d="M106.227,32.673h1.509v1.504h-1.509V32.673z M106.273,35.571h1.422v7.068h-1.422V35.571z M102.59,39.102  c0-0.315-0.02-0.615-0.046-0.895c-0.036-0.285-0.101-0.539-0.206-0.75c-0.104-0.215-0.251-0.38-0.444-0.509  c-0.196-0.128-0.453-0.189-0.768-0.189c-0.325,0-0.583,0.061-0.773,0.189c-0.192,0.128-0.336,0.293-0.446,0.509  c-0.109,0.211-0.176,0.465-0.211,0.75c-0.032,0.28-0.048,0.58-0.048,0.895c0,0.319,0.016,0.613,0.048,0.899  c0.035,0.282,0.102,0.536,0.211,0.75c0.11,0.221,0.253,0.392,0.446,0.519c0.19,0.125,0.448,0.188,0.773,0.188  c0.315,0,0.572-0.063,0.768-0.188c0.193-0.127,0.34-0.298,0.444-0.519c0.105-0.215,0.17-0.469,0.206-0.75  C102.57,39.715,102.59,39.42,102.59,39.102 M102.618,42.645v-0.757c-0.271,0.326-0.55,0.549-0.843,0.664  c-0.292,0.118-0.636,0.176-1.022,0.176c-0.352,0-0.684-0.054-0.988-0.168c-0.3-0.114-0.55-0.265-0.741-0.459  c-0.179-0.174-0.319-0.38-0.429-0.613c-0.106-0.232-0.183-0.482-0.244-0.742c-0.053-0.266-0.092-0.543-0.102-0.821  c-0.016-0.279-0.022-0.552-0.022-0.821c0-0.272,0.007-0.545,0.022-0.822c0.01-0.278,0.049-0.55,0.102-0.806  c0.061-0.265,0.138-0.512,0.244-0.743c0.11-0.231,0.25-0.433,0.429-0.611c0.191-0.198,0.438-0.347,0.738-0.463  c0.295-0.112,0.621-0.165,0.974-0.165c0.384,0,0.718,0.052,1.017,0.165c0.304,0.116,0.578,0.325,0.838,0.627v-3.569h1.424v9.93  H102.618z"/>
<path fill="#7d7d7d" d="M112.067,42.645c-0.337,0-0.624-0.058-0.867-0.168c-0.24-0.113-0.44-0.261-0.597-0.441  c-0.158-0.176-0.276-0.393-0.356-0.627c-0.079-0.235-0.119-0.482-0.119-0.732v-3.885h-0.807v-1.089h0.807v-2.148h1.422v2.148h1.366  v1.089h-1.366v3.814c0,0.262,0.063,0.464,0.191,0.611c0.123,0.142,0.32,0.213,0.589,0.213h0.585v1.216H112.067z"/>
<path fill="#7d7d7d" d="M118.854,39.102c0-0.393-0.027-0.757-0.084-1.101c-0.059-0.345-0.191-0.625-0.407-0.841  c-0.268-0.267-0.617-0.401-1.044-0.401c-0.419,0-0.76,0.134-1.031,0.401c-0.215,0.217-0.35,0.496-0.403,0.841  c-0.055,0.344-0.084,0.708-0.084,1.101c0,0.39,0.029,0.755,0.084,1.104c0.054,0.343,0.188,0.616,0.403,0.836  c0.279,0.277,0.624,0.416,1.031,0.416c0.419,0,0.768-0.138,1.044-0.416c0.215-0.22,0.348-0.493,0.407-0.836  C118.826,39.857,118.854,39.492,118.854,39.102 M120.276,39.102c0,0.604-0.057,1.133-0.169,1.579  c-0.112,0.457-0.334,0.855-0.67,1.207c-0.231,0.245-0.52,0.442-0.869,0.6s-0.764,0.236-1.25,0.236c-0.482,0-0.895-0.078-1.242-0.236  c-0.345-0.158-0.632-0.355-0.864-0.6c-0.334-0.352-0.557-0.75-0.668-1.207c-0.111-0.446-0.167-0.975-0.167-1.579  c0-0.595,0.056-1.118,0.167-1.569c0.111-0.45,0.334-0.854,0.668-1.207c0.231-0.242,0.519-0.439,0.864-0.597  c0.347-0.157,0.759-0.237,1.242-0.237c0.486,0,0.901,0.08,1.25,0.237c0.349,0.158,0.638,0.355,0.869,0.597  c0.336,0.353,0.559,0.757,0.67,1.207C120.219,37.983,120.276,38.506,120.276,39.102"/>
<path fill="#7d7d7d" d="M128.282,32.673h1.5v1.504h-1.5V32.673z M128.322,35.571h1.42v7.068h-1.42V35.571z M126.085,37.231  c-0.161-0.155-0.316-0.275-0.471-0.354c-0.149-0.077-0.351-0.118-0.59-0.118c-0.392,0-0.721,0.143-1,0.423  c-0.27,0.287-0.409,0.672-0.409,1.167v4.296h-1.422v-7.072h1.393v0.768c0.189-0.251,0.448-0.454,0.782-0.612  c0.333-0.155,0.704-0.236,1.104-0.236c0.343,0,0.652,0.049,0.918,0.152c0.268,0.1,0.527,0.274,0.764,0.517L126.085,37.231z"/>
<path fill="#7d7d7d" d="M135.787,39.518h-1.655c-0.418,0-0.736,0.087-0.949,0.268c-0.214,0.176-0.318,0.427-0.318,0.753  s0.101,0.575,0.311,0.746c0.213,0.171,0.537,0.257,0.983,0.257c0.269,0,0.512-0.019,0.725-0.063c0.214-0.04,0.414-0.152,0.6-0.34  c0.203-0.205,0.303-0.554,0.303-1.045V39.518z M135.818,42.645v-0.642c-0.259,0.261-0.528,0.441-0.809,0.556  c-0.278,0.114-0.636,0.168-1.074,0.168c-0.446,0-0.819-0.049-1.123-0.16c-0.3-0.108-0.559-0.268-0.773-0.483  c-0.371-0.39-0.555-0.895-0.555-1.517c0-0.596,0.201-1.082,0.605-1.465c0.404-0.38,1.015-0.572,1.834-0.572h1.863v-0.497  c0-0.449-0.115-0.779-0.353-1.001c-0.233-0.218-0.634-0.329-1.19-0.329c-0.392,0-0.696,0.052-0.923,0.157  c-0.216,0.1-0.428,0.278-0.625,0.524l-0.934-0.873c0.335-0.391,0.694-0.659,1.08-0.803c0.386-0.143,0.871-0.216,1.456-0.216  c1.942,0,2.914,0.809,2.914,2.422v4.731H135.818z"/>
<path fill="#7d7d7d" d="M141.288,42.645c-0.334,0-0.621-0.058-0.871-0.162c-0.245-0.109-0.444-0.249-0.605-0.425  c-0.16-0.174-0.273-0.385-0.349-0.621c-0.071-0.238-0.11-0.486-0.11-0.743v-7.98h1.423v7.89c0,0.271,0.057,0.473,0.169,0.616  c0.108,0.138,0.31,0.208,0.597,0.208h0.625v1.216H141.288z"/>
<g>
	<defs>
		<path id="SVGID_1_" d="M1.284,31.567c0,0,1.502,9.587,5.314,13.741c0,0,17.819-1.581,30.126-1.305c0,0,1.758-7.184,1.728-15.069    c0,0-2.057-0.182-5.936-0.182C26.372,28.752,15.652,29.205,1.284,31.567"/>
	</defs>
	<use xlink:href="#SVGID_1_" overflow="visible" fill="#7d7d7d"/>
	<clipPath id="SVGID_2_">
		<use xlink:href="#SVGID_1_" overflow="visible"/>
	</clipPath>
</g>
<g>
	<defs>
		<path id="SVGID_3_" d="M34.066,58.287c-0.01,0.025-0.016,0.032-0.016,0.032s0.736-0.061,3.737-0.491    c3-0.423,6.317-1.358,6.317-1.358c5.611-1.968,9.816-6.354,9.975-6.507c0.154-0.163,1.586-1.6,2.012-2.068    c0.415-0.472,0.185-0.757,0.185-0.757c-0.545-0.993-1.712-1.227-1.712-1.227c-2.018-0.55-16.002-0.55-16.002-0.55    C37.91,49.667,34.316,57.729,34.066,58.287"/>
	</defs>
	<use xlink:href="#SVGID_3_" overflow="visible" fill="#7d7d7d"/>
	<clipPath id="SVGID_4_">
		<use xlink:href="#SVGID_3_" overflow="visible"/>
	</clipPath>
</g>
<g>
	<polygon fill="#7d7d7d" points="7.646,46.582 7.671,46.615 7.684,46.628 7.672,46.615  "/>
	<path fill="#7d7d7d" d="M36.908,9.624c0,0-0.277-4.864-4.303-9.606C32.353,0.012,32.102,0,31.848,0   C21.673,0,12.651,4.673,7.026,11.88C10.704,10.893,19.799,9.142,36.908,9.624z"/>
	<path fill="#7d7d7d" d="M6.155,44.784c-3.482-4.377-4.871-13.215-4.871-13.215h0.003l0.002,0.002   c23.436-3.852,37.164-2.637,37.164-2.637c0.033,7.886-1.725,15.074-1.725,15.074c-12.104-0.272-29.536,1.245-30.112,1.297   L6.155,44.784z"/>
	<path fill="#7d7d7d" d="M36.407,45.45c-13.091,0-27.259,1.066-28.633,1.172c0.005,0,0.011,0,0.016,0c-0.006,0-0.011,0-0.017,0   c-0.037,0.003-0.07,0.006-0.087,0.007l-0.001-0.001c-0.015,0-0.025,0.001-0.025,0.001c9.856,11.595,23.624,11.691,24.501,11.682   l0.062,0.008l-0.061-0.008h0.048C34.847,52.054,36.407,45.45,36.407,45.45z"/>
	<path fill="#7d7d7d" d="M62.592,29.794c-6.522-1.749-21.984-2.39-21.984-2.39c0.118-5.475-1.304-16.263-1.304-16.263   c6.555,0.061,16.89,1.566,17.231,1.617c-0.01-0.008-0.092-0.098-0.104-0.187l-0.006-0.007c0.004,0.008,0.006,0.013,0.006,0.013   c-4.476-1.97-17.229-2.845-17.229-2.845c-1.879-7.249-4.238-9.464-4.364-9.575c-0.011-0.008,0.005-0.008,0.062-0.008   c15.617,1.456,27.82,13.95,27.82,29.155c0,0.079-0.03,0.436-0.031,0.514L62.592,29.794z"/>
	<path fill="#7d7d7d" d="M1,28.319c0.202-5.791,1.945-10.768,5.189-15.236c2.475-0.53,7.812-1.469,13.14-1.855   c7.546-0.553,17.783-0.208,17.783-0.208c1.043,5.984,1.341,16.31,1.341,16.31c-15.682-0.867-37.005,2.432-37.377,2.486L1.015,29.14   L1,28.319z"/>
	<path fill="#7d7d7d" d="M56.745,46.526c-5.354-1.232-18.146-1.043-18.146-1.043c-0.65,4.312-4.283,12.247-4.531,12.803   c-0.01,0.025-0.016,0.032-0.016,0.032s0.734-0.062,3.734-0.491c1.344-0.191,2.749-0.483,3.893-0.749   c6.106-1.948,11.364-5.65,15.094-10.487L56.745,46.526z"/>
</g>
</svg>
