<?xml version="1.0" encoding="UTF-8"?>
<svg width="1221px" height="951px" viewBox="0 0 1221 951" version="1.1" xmlns="http://www.w3.org/2000/svg" xmlns:xlink="http://www.w3.org/1999/xlink">
    <!-- Generator: Sketch 53.2 (72643) - https://sketchapp.com -->
    <title>Group 20</title>
    <desc>Created with Sketch.</desc>
    <g id="Page-1" stroke="none" stroke-width="1" fill="none" fill-rule="evenodd" opacity="0.800000012">
        <g id="Desktop-HD-Copy-4" transform="translate(-48.000000, -740.000000)">
            <g id="Group-20" transform="translate(40.610415, 740.000000)">
                <g id="Group-2-Copy-2" transform="translate(49.000000, 626.732220) rotate(103.000000) translate(-49.000000, -626.732220) translate(4.000000, 587.232220)">
                    <circle id="Oval-Copy-10" fill="#D6D6D6" cx="4" cy="66" r="4"></circle>
                    <circle id="Oval-Copy-11" fill="#D6D6D6" cx="86" cy="34" r="4"></circle>
                    <circle id="Oval-Copy-12" fill="#D6D6D6" cx="57.5" cy="74.5" r="4.5"></circle>
                    <circle id="Oval-Copy-13" fill="#D6D6D6" cx="27" cy="24" r="2"></circle>
                    <circle id="Oval-Copy-14" fill="#D6D6D6" cx="61" cy="2" r="2"></circle>
                    <path d="M4,66 L86,34" id="Line-3-Copy-2" stroke="#D6D6D6" stroke-width="0.5" stroke-linecap="square"></path>
                    <path d="M86,34 L57.5,74.5" id="Line-4-Copy-2" stroke="#D6D6D6" stroke-width="0.5" stroke-linecap="square"></path>
                    <path d="M57.5,74.5 L27,24" id="Line-5-Copy-2" stroke="#D6D6D6" stroke-width="0.5" stroke-linecap="square"></path>
                    <path d="M57.5,74.5 L61,2" id="Line-7-Copy-2" stroke="#D6D6D6" stroke-width="0.5" stroke-linecap="square"></path>
                    <path d="M61,2 L4,66" id="Line-8-Copy-2" stroke="#D6D6D6" stroke-width="0.5" stroke-linecap="square"></path>
                    <path d="M61.5,2 L86,34" id="Line-9-Copy-2" stroke="#D6D6D6" stroke-width="0.5" stroke-linecap="square"></path>
                </g>
                <g id="Group-2-Copy" transform="translate(1196.148980, 891.130274) rotate(42.000000) translate(-1196.148980, -891.130274) translate(1127.148980, 830.630274)">
                    <circle id="Oval-Copy-10" fill="#D6D6D6" cx="6.7397936" cy="101.036147" r="6"></circle>
                    <circle id="Oval-Copy-12" fill="#D6D6D6" cx="88.2076833" cy="113.802625" r="7"></circle>
                    <circle id="Oval-Copy-13" fill="#D6D6D6" cx="41.957652" cy="37.0306597" r="3"></circle>
                    <path d="M7.08004505,101.922533 L132.080045,52.9225327" id="Line-3-Copy-2" stroke="#D6D6D6" stroke-width="0.5" stroke-linecap="square"></path>
                    <path d="M131.607852,52.7687642 L88.3664729,114.012667" id="Line-4-Copy-2" stroke="#D6D6D6" stroke-width="0.5" stroke-linecap="square"></path>
                    <path d="M88.1591685,113.533313 L41.917233,37.2882146" id="Line-5-Copy-2" stroke="#D6D6D6" stroke-width="0.5" stroke-linecap="square"></path>
                    <path d="M88.4356584,114.504312 L93.6856584,4.26458582" id="Line-7-Copy-2" stroke="#D6D6D6" stroke-width="0.5" stroke-linecap="square"></path>
                    <path d="M93.8232859,4.54678186 L6.8232859,101.546782" id="Line-8-Copy-2" stroke="#D6D6D6" stroke-width="0.5" stroke-linecap="square"></path>
                    <path d="M95.3321169,3.89246417 L132.572117,52.8924642" id="Line-9-Copy-2" stroke="#D6D6D6" stroke-width="0.5" stroke-linecap="square"></path>
                </g>
                <g id="Group-4" transform="translate(77.389585, 0.000000)">
                    <circle id="Oval" fill="#D6D6D6" cx="5.5" cy="89.5" r="5.5"></circle>
                    <circle id="Oval-Copy-3" fill="#D6D6D6" cx="114.5" cy="46.5" r="5.5"></circle>
                    <circle id="Oval-Copy-2" fill="#D6D6D6" cx="77" cy="101" r="6"></circle>
                    <circle id="Oval-Copy" fill="#D6D6D6" cx="36.5" cy="32.5" r="2.5"></circle>
                    <circle id="Oval-Copy-4" fill="#D6D6D6" cx="81.5" cy="2.5" r="2.5"></circle>
                    <path d="M6,89 L115,46" id="Line-3" stroke="#D6D6D6" stroke-width="0.5" stroke-linecap="square"></path>
                    <path d="M115,46 L76.6724138,101.317073" id="Line-4" stroke="#D6D6D6" stroke-width="0.5" stroke-linecap="square"></path>
                    <path d="M76.3387097,101.323529 L36,33" id="Line-5" stroke="#D6D6D6" stroke-width="0.5" stroke-linecap="square"></path>
                    <path d="M35.3333333,32.6785714 L5.33333333,89" id="Line-6" stroke="#D6D6D6" stroke-width="0.5" stroke-linecap="square"></path>
                    <path d="M76.625,101.321918 L81,3" id="Line-7" stroke="#D6D6D6" stroke-width="0.5" stroke-linecap="square"></path>
                    <path d="M81,3 L5,90" id="Line-8" stroke="#D6D6D6" stroke-width="0.5" stroke-linecap="square"></path>
                    <path d="M82.66,3 L115,46" id="Line-9" stroke="#D6D6D6" stroke-width="0.5" stroke-linecap="square"></path>
                </g>
                <g id="Group-3" transform="translate(1217.424407, 254.916532) rotate(59.000000) translate(-1217.424407, -254.916532) translate(1172.424407, 215.416532)">
                    <circle id="Oval-Copy-5" fill="#D6D6D6" cx="4" cy="66" r="4"></circle>
                    <circle id="Oval-Copy-7" fill="#D6D6D6" cx="57.5" cy="74.5" r="4.5"></circle>
                    <circle id="Oval-Copy-8" fill="#D6D6D6" cx="27" cy="24" r="2"></circle>
                    <path d="M4,66 L86,34" id="Line-3-Copy" stroke="#D6D6D6" stroke-width="0.5" stroke-linecap="square"></path>
                    <path d="M86,34 L57.5,74.5" id="Line-4-Copy" stroke="#D6D6D6" stroke-width="0.5" stroke-linecap="square"></path>
                    <path d="M57.5,74.5 L27,24" id="Line-5-Copy" stroke="#D6D6D6" stroke-width="0.5" stroke-linecap="square"></path>
                    <path d="M26.5,24.5 L4,66" id="Line-6-Copy" stroke="#D6D6D6" stroke-width="0.5" stroke-linecap="square"></path>
                    <path d="M57.5,74.5 L61,2" id="Line-7-Copy" stroke="#D6D6D6" stroke-width="0.5" stroke-linecap="square"></path>
                    <path d="M61,2 L4,66" id="Line-8-Copy" stroke="#D6D6D6" stroke-width="0.5" stroke-linecap="square"></path>
                </g>
                <g id="Group-2" transform="translate(950.000000, 573.732220) rotate(103.000000) translate(-950.000000, -573.732220) translate(905.000000, 534.232220)">
                    <circle id="Oval-Copy-10" fill="#D6D6D6" cx="4" cy="66" r="4"></circle>
                    <circle id="Oval-Copy-11" fill="#D6D6D6" cx="86" cy="34" r="4"></circle>
                    <circle id="Oval-Copy-12" fill="#D6D6D6" cx="57.5" cy="74.5" r="4.5"></circle>
                    <circle id="Oval-Copy-13" fill="#D6D6D6" cx="27" cy="24" r="2"></circle>
                    <circle id="Oval-Copy-14" fill="#D6D6D6" cx="61" cy="2" r="2"></circle>
                    <path d="M4,66 L86,34" id="Line-3-Copy-2" stroke="#D6D6D6" stroke-width="0.5" stroke-linecap="square"></path>
                    <path d="M86,34 L57.5,74.5" id="Line-4-Copy-2" stroke="#D6D6D6" stroke-width="0.5" stroke-linecap="square"></path>
                    <path d="M57.5,74.5 L27,24" id="Line-5-Copy-2" stroke="#D6D6D6" stroke-width="0.5" stroke-linecap="square"></path>
                    <path d="M57.5,74.5 L61,2" id="Line-7-Copy-2" stroke="#D6D6D6" stroke-width="0.5" stroke-linecap="square"></path>
                    <path d="M61,2 L4,66" id="Line-8-Copy-2" stroke="#D6D6D6" stroke-width="0.5" stroke-linecap="square"></path>
                    <path d="M61.5,2 L86,34" id="Line-9-Copy-2" stroke="#D6D6D6" stroke-width="0.5" stroke-linecap="square"></path>
                </g>
            </g>
        </g>
    </g>
</svg>