<?xml version="1.0" encoding="UTF-8"?>
<svg width="213px" height="65px" viewBox="0 0 213 65" version="1.1" xmlns="http://www.w3.org/2000/svg" xmlns:xlink="http://www.w3.org/1999/xlink">
    <!-- Generator: Sketch 53.2 (72643) - https://sketchapp.com -->
    <title>Logo-UnProductoDe</title>
    <desc>Created with Sketch.</desc>
    <g id="Symbols" stroke="none" stroke-width="1" fill="none" fill-rule="evenodd">
        <g id="Header" transform="translate(-1056.000000, 0.000000)">
            <rect id="Rectangle" fill="#0F2560" x="1056" y="0" width="213" height="65"></rect>
            <path d="M1085.274,36.328 C1085.602,36.328 1085.924,36.2380009 1086.24,36.058 C1086.556,35.8779991 1086.878,35.6200017 1087.206,35.284 L1087.206,30.808 C1087.206,30.6959994 1087.27,30.64 1087.398,30.64 L1088.058,30.64 C1088.17,30.64 1088.226,30.6959994 1088.226,30.808 L1088.202,36.844 C1088.202,36.9480005 1088.158,37 1088.07,37 L1087.374,37 C1087.286,37 1087.242,36.9560004 1087.242,36.868 L1087.242,36.16 C1087.242,36.0639995 1087.206,36.0519996 1087.134,36.124 C1086.702,36.4920018 1086.318,36.7499993 1085.982,36.898 C1085.646,37.0460007 1085.302,37.12 1084.95,37.12 C1084.39,37.12 1083.93,36.9520017 1083.57,36.616 C1083.21,36.2799983 1083.03,35.8360028 1083.03,35.284 L1083.03,30.82 C1083.03,30.6999994 1083.09,30.64 1083.21,30.64 L1083.882,30.64 C1083.986,30.64 1084.038,30.6959994 1084.038,30.808 L1084.038,35.02 C1084.038,35.420002 1084.148,35.7379988 1084.368,35.974 C1084.588,36.2100012 1084.89,36.328 1085.274,36.328 Z M1090.23,37 C1090.118,37 1090.062,36.9480005 1090.062,36.844 L1090.062,30.796 C1090.062,30.6919995 1090.106,30.64 1090.194,30.64 L1090.914,30.64 C1091.002,30.64 1091.046,30.6839996 1091.046,30.772 L1091.046,31.468 C1091.046,31.5560004 1091.082,31.5680003 1091.154,31.504 C1091.602,31.1519982 1091.984,30.9000008 1092.3,30.748 C1092.616,30.5959992 1092.97,30.52 1093.362,30.52 C1093.97,30.52 1094.444,30.6839984 1094.784,31.012 C1095.124,31.3400016 1095.294,31.7799972 1095.294,32.332 L1095.294,36.808 C1095.294,36.9360006 1095.234,37 1095.114,37 L1094.442,37 C1094.338,37 1094.286,36.9480005 1094.286,36.844 L1094.286,32.56 C1094.286,32.159998 1094.184,31.8520011 1093.98,31.636 C1093.776,31.4199989 1093.462,31.312 1093.038,31.312 C1092.702,31.312 1092.392,31.3859993 1092.108,31.534 C1091.824,31.6820007 1091.478,31.9319982 1091.07,32.284 L1091.07,36.82 C1091.07,36.8840003 1091.056,36.9299999 1091.028,36.958 C1091,36.9860001 1090.954,37 1090.89,37 L1090.23,37 Z M1100.478,30.64 C1100.59,30.64 1100.646,30.6999994 1100.646,30.82 L1100.646,31.324 C1100.646,31.3960004 1100.666,31.432 1100.706,31.432 C1100.73,31.432 1100.762,31.4120002 1100.802,31.372 C1100.97,31.2039992 1101.118,31.0680005 1101.246,30.964 C1101.374,30.8599995 1101.562,30.7600005 1101.81,30.664 C1102.058,30.5679995 1102.35,30.52 1102.686,30.52 C1103.19,30.52 1103.64,30.6399988 1104.036,30.88 C1104.432,31.1200012 1104.744,31.4799976 1104.972,31.96 C1105.2,32.4400024 1105.314,33.0279965 1105.314,33.724 C1105.314,34.4280035 1105.2,35.0359974 1104.972,35.548 C1104.744,36.0600026 1104.422,36.4499987 1104.006,36.718 C1103.59,36.9860013 1103.106,37.12 1102.554,37.12 C1101.89,37.12 1101.322,36.920002 1100.85,36.52 C1100.794,36.4639997 1100.75,36.436 1100.718,36.436 C1100.678,36.436 1100.658,36.4879995 1100.658,36.592 L1100.658,38.824 C1100.658,38.9280005 1100.614,38.98 1100.526,38.98 L1099.782,38.98 C1099.694,38.98 1099.65,38.9280005 1099.65,38.824 L1099.65,30.832 C1099.65,30.7679997 1099.664,30.7200002 1099.692,30.688 C1099.72,30.6559998 1099.77,30.64 1099.842,30.64 L1100.478,30.64 Z M1100.658,35.596 C1100.914,35.8600013 1101.172,36.0579993 1101.432,36.19 C1101.692,36.3220007 1101.978,36.388 1102.29,36.388 C1102.89,36.388 1103.372,36.1600023 1103.736,35.704 C1104.1,35.2479977 1104.282,34.5920043 1104.282,33.736 C1104.282,32.9039958 1104.102,32.2820021 1103.742,31.87 C1103.382,31.4579979 1102.918,31.252 1102.35,31.252 C1102.03,31.252 1101.742,31.3219993 1101.486,31.462 C1101.23,31.6020007 1101.028,31.7799989 1100.88,31.996 C1100.732,32.2120011 1100.658,32.423999 1100.658,32.632 L1100.658,35.596 Z M1106.982,37 C1106.87,37 1106.814,36.9480005 1106.814,36.844 L1106.814,30.796 C1106.814,30.6919995 1106.858,30.64 1106.946,30.64 L1107.642,30.64 C1107.73,30.64 1107.774,30.6839996 1107.774,30.772 L1107.774,31.552 C1107.774,31.6000002 1107.788,31.628 1107.816,31.636 C1107.844,31.644 1107.874,31.6280002 1107.906,31.588 C1108.514,30.8759964 1109.134,30.52 1109.766,30.52 C1110.046,30.52 1110.186,30.5719995 1110.186,30.676 L1110.186,31.396 C1110.186,31.4760004 1110.15,31.5080001 1110.078,31.492 C1109.934,31.4679999 1109.754,31.456 1109.538,31.456 C1109.306,31.456 1109.054,31.5239993 1108.782,31.66 C1108.51,31.7960007 1108.282,31.9719989 1108.098,32.188 C1107.914,32.4040011 1107.822,32.6239989 1107.822,32.848 L1107.822,36.82 C1107.822,36.9400006 1107.762,37 1107.642,37 L1106.982,37 Z M1114.074,37.12 C1113.474,37.12 1112.944,36.9820014 1112.484,36.706 C1112.024,36.4299986 1111.668,36.0440025 1111.416,35.548 C1111.164,35.0519975 1111.038,34.4880032 1111.038,33.856 C1111.038,33.2079968 1111.168,32.6320025 1111.428,32.128 C1111.688,31.6239975 1112.048,31.2300014 1112.508,30.946 C1112.968,30.6619986 1113.494,30.52 1114.086,30.52 C1114.678,30.52 1115.204,30.6619986 1115.664,30.946 C1116.124,31.2300014 1116.48,31.6239975 1116.732,32.128 C1116.984,32.6320025 1117.11,33.2039968 1117.11,33.844 C1117.11,34.4760032 1116.982,35.0399975 1116.726,35.536 C1116.47,36.0320025 1116.112,36.4199986 1115.652,36.7 C1115.192,36.9800014 1114.666,37.12 1114.074,37.12 Z M1114.098,36.364 C1114.722,36.364 1115.208,36.1380023 1115.556,35.686 C1115.904,35.2339977 1116.078,34.612004 1116.078,33.82 C1116.078,33.0359961 1115.9,32.4140023 1115.544,31.954 C1115.188,31.4939977 1114.702,31.264 1114.086,31.264 C1113.462,31.264 1112.97,31.4939977 1112.61,31.954 C1112.25,32.4140023 1112.07,33.0359961 1112.07,33.82 C1112.07,34.6040039 1112.25,35.2239977 1112.61,35.68 C1112.97,36.1360023 1113.466,36.364 1114.098,36.364 Z M1123.122,37 C1123.01,37 1122.954,36.9440006 1122.954,36.832 L1122.954,36.316 C1122.954,36.2439996 1122.934,36.208 1122.894,36.208 C1122.87,36.208 1122.838,36.2279998 1122.798,36.268 C1122.558,36.5080012 1122.296,36.7099992 1122.012,36.874 C1121.728,37.0380008 1121.362,37.12 1120.914,37.12 C1120.402,37.12 1119.946,37.0000012 1119.546,36.76 C1119.146,36.5199988 1118.83,36.1580024 1118.598,35.674 C1118.366,35.1899976 1118.25,34.6040034 1118.25,33.916 C1118.25,33.2439966 1118.37,32.6520026 1118.61,32.14 C1118.85,31.6279974 1119.182,31.2300014 1119.606,30.946 C1120.03,30.6619986 1120.514,30.52 1121.058,30.52 C1121.418,30.52 1121.73,30.5759994 1121.994,30.688 C1122.258,30.8000006 1122.506,30.955999 1122.738,31.156 C1122.802,31.2040002 1122.846,31.228 1122.87,31.228 C1122.91,31.228 1122.93,31.1760005 1122.93,31.072 L1122.93,28.252 C1122.93,28.1479995 1122.974,28.096 1123.062,28.096 L1123.794,28.096 C1123.882,28.096 1123.926,28.1479995 1123.926,28.252 L1123.926,36.808 C1123.926,36.8800004 1123.914,36.9299999 1123.89,36.958 C1123.866,36.9860001 1123.814,37 1123.734,37 L1123.122,37 Z M1122.918,32.044 C1122.662,31.7879987 1122.404,31.5940007 1122.144,31.462 C1121.884,31.3299993 1121.602,31.264 1121.298,31.264 C1120.69,31.264 1120.202,31.4919977 1119.834,31.948 C1119.466,32.4040023 1119.282,33.0479958 1119.282,33.88 C1119.282,34.7200042 1119.464,35.3479979 1119.828,35.764 C1120.192,36.1800021 1120.658,36.388 1121.226,36.388 C1121.538,36.388 1121.824,36.3140007 1122.084,36.166 C1122.344,36.0179993 1122.548,35.8320011 1122.696,35.608 C1122.844,35.3839989 1122.918,35.1600011 1122.918,34.936 L1122.918,32.044 Z M1127.946,36.328 C1128.274,36.328 1128.596,36.2380009 1128.912,36.058 C1129.228,35.8779991 1129.55,35.6200017 1129.878,35.284 L1129.878,30.808 C1129.878,30.6959994 1129.942,30.64 1130.07,30.64 L1130.73,30.64 C1130.842,30.64 1130.898,30.6959994 1130.898,30.808 L1130.874,36.844 C1130.874,36.9480005 1130.83,37 1130.742,37 L1130.046,37 C1129.958,37 1129.914,36.9560004 1129.914,36.868 L1129.914,36.16 C1129.914,36.0639995 1129.878,36.0519996 1129.806,36.124 C1129.374,36.4920018 1128.99,36.7499993 1128.654,36.898 C1128.318,37.0460007 1127.974,37.12 1127.622,37.12 C1127.062,37.12 1126.602,36.9520017 1126.242,36.616 C1125.882,36.2799983 1125.702,35.8360028 1125.702,35.284 L1125.702,30.82 C1125.702,30.6999994 1125.762,30.64 1125.882,30.64 L1126.554,30.64 C1126.658,30.64 1126.71,30.6959994 1126.71,30.808 L1126.71,35.02 C1126.71,35.420002 1126.82,35.7379988 1127.04,35.974 C1127.26,36.2100012 1127.562,36.328 1127.946,36.328 Z M1135.374,30.52 C1135.958,30.52 1136.456,30.6559986 1136.868,30.928 C1137.28,31.2000014 1137.61,31.5599978 1137.858,32.008 L1137.882,32.104 C1137.882,32.1520002 1137.854,32.18 1137.798,32.188 L1137.138,32.344 L1137.102,32.356 C1137.062,32.356 1137.022,32.3240003 1136.982,32.26 C1136.726,31.9159983 1136.48,31.6640008 1136.244,31.504 C1136.008,31.3439992 1135.738,31.264 1135.434,31.264 C1134.81,31.264 1134.314,31.4939977 1133.946,31.954 C1133.578,32.4140023 1133.394,33.0359961 1133.394,33.82 C1133.394,34.612004 1133.58,35.2359977 1133.952,35.692 C1134.324,36.1480023 1134.826,36.376 1135.458,36.376 C1135.834,36.376 1136.164,36.2840009 1136.448,36.1 C1136.732,35.9159991 1136.99,35.6320019 1137.222,35.248 C1137.246,35.2079998 1137.27,35.186 1137.294,35.182 C1137.318,35.178 1137.346,35.1839999 1137.378,35.2 L1137.894,35.392 C1137.95,35.4160001 1137.966,35.4679996 1137.942,35.548 C1137.694,36.0120023 1137.354,36.3899985 1136.922,36.682 C1136.49,36.9740015 1135.974,37.12 1135.374,37.12 C1134.79,37.12 1134.27,36.9820014 1133.814,36.706 C1133.358,36.4299986 1133.002,36.0440025 1132.746,35.548 C1132.49,35.0519975 1132.362,34.4840032 1132.362,33.844 C1132.362,33.2039968 1132.49,32.6300025 1132.746,32.122 C1133.002,31.6139975 1133.36,31.2200014 1133.82,30.94 C1134.28,30.6599986 1134.798,30.52 1135.374,30.52 Z M1140.918,31.384 C1140.854,31.384 1140.822,31.4199996 1140.822,31.492 L1140.822,35.296 C1140.822,35.6560018 1140.882,35.9039993 1141.002,36.04 C1141.122,36.1760007 1141.318,36.244 1141.59,36.244 L1142.418,36.244 C1142.506,36.244 1142.55,36.2879996 1142.55,36.376 L1142.538,36.784 C1142.538,36.8640004 1142.49,36.9159999 1142.394,36.94 C1142.186,36.9800002 1141.81,37 1141.266,37 C1140.762,37 1140.394,36.8820012 1140.162,36.646 C1139.93,36.4099988 1139.814,36.0360026 1139.814,35.524 L1139.814,31.516 C1139.814,31.4279996 1139.774,31.384 1139.694,31.384 L1138.734,31.384 C1138.646,31.384 1138.602,31.3440004 1138.602,31.264 L1138.602,30.76 C1138.602,30.6799996 1138.642,30.64 1138.722,30.64 L1139.742,30.64 C1139.798,30.64 1139.826,30.6080003 1139.826,30.544 L1139.958,28.636 C1139.958,28.5319995 1140.002,28.48 1140.09,28.48 L1140.69,28.48 C1140.786,28.48 1140.834,28.5359994 1140.834,28.648 L1140.834,30.544 C1140.834,30.6080003 1140.866,30.64 1140.93,30.64 L1142.442,30.64 C1142.53,30.64 1142.574,30.6759996 1142.574,30.748 L1142.574,31.264 C1142.574,31.3440004 1142.53,31.384 1142.442,31.384 L1140.918,31.384 Z M1146.546,37.12 C1145.946,37.12 1145.416,36.9820014 1144.956,36.706 C1144.496,36.4299986 1144.14,36.0440025 1143.888,35.548 C1143.636,35.0519975 1143.51,34.4880032 1143.51,33.856 C1143.51,33.2079968 1143.64,32.6320025 1143.9,32.128 C1144.16,31.6239975 1144.52,31.2300014 1144.98,30.946 C1145.44,30.6619986 1145.966,30.52 1146.558,30.52 C1147.15,30.52 1147.676,30.6619986 1148.136,30.946 C1148.596,31.2300014 1148.952,31.6239975 1149.204,32.128 C1149.456,32.6320025 1149.582,33.2039968 1149.582,33.844 C1149.582,34.4760032 1149.454,35.0399975 1149.198,35.536 C1148.942,36.0320025 1148.584,36.4199986 1148.124,36.7 C1147.664,36.9800014 1147.138,37.12 1146.546,37.12 Z M1146.57,36.364 C1147.194,36.364 1147.68,36.1380023 1148.028,35.686 C1148.376,35.2339977 1148.55,34.612004 1148.55,33.82 C1148.55,33.0359961 1148.372,32.4140023 1148.016,31.954 C1147.66,31.4939977 1147.174,31.264 1146.558,31.264 C1145.934,31.264 1145.442,31.4939977 1145.082,31.954 C1144.722,32.4140023 1144.542,33.0359961 1144.542,33.82 C1144.542,34.6040039 1144.722,35.2239977 1145.082,35.68 C1145.442,36.1360023 1145.938,36.364 1146.57,36.364 Z M1158.174,37 C1158.062,37 1158.006,36.9440006 1158.006,36.832 L1158.006,36.316 C1158.006,36.2439996 1157.986,36.208 1157.946,36.208 C1157.922,36.208 1157.89,36.2279998 1157.85,36.268 C1157.61,36.5080012 1157.348,36.7099992 1157.064,36.874 C1156.78,37.0380008 1156.414,37.12 1155.966,37.12 C1155.454,37.12 1154.998,37.0000012 1154.598,36.76 C1154.198,36.5199988 1153.882,36.1580024 1153.65,35.674 C1153.418,35.1899976 1153.302,34.6040034 1153.302,33.916 C1153.302,33.2439966 1153.422,32.6520026 1153.662,32.14 C1153.902,31.6279974 1154.234,31.2300014 1154.658,30.946 C1155.082,30.6619986 1155.566,30.52 1156.11,30.52 C1156.47,30.52 1156.782,30.5759994 1157.046,30.688 C1157.31,30.8000006 1157.558,30.955999 1157.79,31.156 C1157.854,31.2040002 1157.898,31.228 1157.922,31.228 C1157.962,31.228 1157.982,31.1760005 1157.982,31.072 L1157.982,28.252 C1157.982,28.1479995 1158.026,28.096 1158.114,28.096 L1158.846,28.096 C1158.934,28.096 1158.978,28.1479995 1158.978,28.252 L1158.978,36.808 C1158.978,36.8800004 1158.966,36.9299999 1158.942,36.958 C1158.918,36.9860001 1158.866,37 1158.786,37 L1158.174,37 Z M1157.97,32.044 C1157.714,31.7879987 1157.456,31.5940007 1157.196,31.462 C1156.936,31.3299993 1156.654,31.264 1156.35,31.264 C1155.742,31.264 1155.254,31.4919977 1154.886,31.948 C1154.518,32.4040023 1154.334,33.0479958 1154.334,33.88 C1154.334,34.7200042 1154.516,35.3479979 1154.88,35.764 C1155.244,36.1800021 1155.71,36.388 1156.278,36.388 C1156.59,36.388 1156.876,36.3140007 1157.136,36.166 C1157.396,36.0179993 1157.6,35.8320011 1157.748,35.608 C1157.896,35.3839989 1157.97,35.1600011 1157.97,34.936 L1157.97,32.044 Z M1161.51,34.216 C1161.51,34.6000019 1161.604,34.9559984 1161.792,35.284 C1161.98,35.6120016 1162.234,35.871999 1162.554,36.064 C1162.874,36.256001 1163.226,36.352 1163.61,36.352 C1164.41,36.352 1165.034,36.0200033 1165.482,35.356 C1165.514,35.3239998 1165.542,35.306 1165.566,35.302 C1165.59,35.298 1165.618,35.3039999 1165.65,35.32 L1166.154,35.572 C1166.218,35.6120002 1166.226,35.6679996 1166.178,35.74 C1165.866,36.2200024 1165.494,36.5699989 1165.062,36.79 C1164.63,37.0100011 1164.114,37.12 1163.514,37.12 C1162.93,37.12 1162.406,36.9840014 1161.942,36.712 C1161.478,36.4399986 1161.116,36.0580025 1160.856,35.566 C1160.596,35.0739975 1160.466,34.5120032 1160.466,33.88 C1160.466,33.1999966 1160.598,32.6060025 1160.862,32.098 C1161.126,31.5899975 1161.488,31.2000014 1161.948,30.928 C1162.408,30.6559986 1162.926,30.52 1163.502,30.52 C1164.078,30.52 1164.584,30.6479987 1165.02,30.904 C1165.456,31.1600013 1165.794,31.5339975 1166.034,32.026 C1166.274,32.5180025 1166.394,33.0999966 1166.394,33.772 L1166.394,33.82 C1166.394,33.8920004 1166.382,33.9459998 1166.358,33.982 C1166.334,34.0180002 1166.286,34.036 1166.214,34.036 L1161.618,34.036 C1161.546,34.036 1161.51,34.0959994 1161.51,34.216 Z M1165.182,33.376 C1165.27,33.376 1165.326,33.3660001 1165.35,33.346 C1165.374,33.3259999 1165.386,33.2800004 1165.386,33.208 C1165.386,32.8559982 1165.312,32.5300015 1165.164,32.23 C1165.016,31.9299985 1164.8,31.6900009 1164.516,31.51 C1164.232,31.3299991 1163.902,31.24 1163.526,31.24 C1163.118,31.24 1162.762,31.341999 1162.458,31.546 C1162.154,31.750001 1161.922,32.0139984 1161.762,32.338 C1161.602,32.6620016 1161.526,33.0079982 1161.534,33.376 L1165.182,33.376 Z M1177.59,30.868 C1177.59,31.7320043 1177.292,32.4019976 1176.696,32.878 C1176.1,33.3540024 1175.314,33.592 1174.338,33.592 L1172.538,33.592 C1172.45,33.592 1172.406,33.6359996 1172.406,33.724 L1172.406,36.724 C1172.406,36.9080009 1172.302,37 1172.094,37 L1170.558,37 C1170.462,37 1170.396,36.9800002 1170.36,36.94 C1170.324,36.8999998 1170.306,36.8400004 1170.306,36.76 L1170.306,28.324 C1170.306,28.1719992 1170.37,28.096 1170.498,28.096 L1174.098,28.096 C1174.762,28.096 1175.356,28.197999 1175.88,28.402 C1176.404,28.606001 1176.82,28.9159979 1177.128,29.332 C1177.436,29.7480021 1177.59,30.259997 1177.59,30.868 Z M1175.43,30.832 C1175.43,30.423998 1175.298,30.116001 1175.034,29.908 C1174.77,29.699999 1174.414,29.596 1173.966,29.596 L1172.634,29.596 C1172.554,29.596 1172.496,29.6119998 1172.46,29.644 C1172.424,29.6760002 1172.406,29.7319996 1172.406,29.812 L1172.406,31.864 C1172.406,31.9440004 1172.418,32.0019998 1172.442,32.038 C1172.466,32.0740002 1172.51,32.092 1172.574,32.092 L1174.05,32.092 C1174.474,32.092 1174.81,31.9800011 1175.058,31.756 C1175.306,31.5319989 1175.43,31.224002 1175.43,30.832 Z M1181.634,37.12 C1181.002,37.12 1180.444,36.9820014 1179.96,36.706 C1179.476,36.4299986 1179.098,36.0440025 1178.826,35.548 C1178.554,35.0519975 1178.418,34.4880032 1178.418,33.856 C1178.418,33.1999967 1178.556,32.6200025 1178.832,32.116 C1179.108,31.6119975 1179.492,31.2200014 1179.984,30.94 C1180.476,30.6599986 1181.03,30.52 1181.646,30.52 C1182.278,30.52 1182.838,30.6619986 1183.326,30.946 C1183.814,31.2300014 1184.192,31.6239975 1184.46,32.128 C1184.728,32.6320025 1184.862,33.2039968 1184.862,33.844 C1184.862,34.4760032 1184.726,35.0399975 1184.454,35.536 C1184.182,36.0320025 1183.802,36.4199986 1183.314,36.7 C1182.826,36.9800014 1182.266,37.12 1181.634,37.12 Z M1181.646,35.896 C1182.086,35.896 1182.42,35.7220017 1182.648,35.374 C1182.876,35.0259983 1182.99,34.5080034 1182.99,33.82 C1182.99,33.1239965 1182.876,32.5980018 1182.648,32.242 C1182.42,31.8859982 1182.086,31.708 1181.646,31.708 C1181.206,31.708 1180.87,31.8859982 1180.638,32.242 C1180.406,32.5980018 1180.29,33.1239965 1180.29,33.82 C1180.29,34.5000034 1180.406,35.0159982 1180.638,35.368 C1180.87,35.7200018 1181.206,35.896 1181.646,35.896 Z M1187.49,30.64 C1187.586,30.64 1187.654,30.6579998 1187.694,30.694 C1187.734,30.7300002 1187.754,30.7919996 1187.754,30.88 L1187.754,31.24 C1187.754,31.2960003 1187.77,31.324 1187.802,31.324 C1187.826,31.324 1187.866,31.3040002 1187.922,31.264 C1188.17,31.0319988 1188.424,30.8500007 1188.684,30.718 C1188.944,30.5859993 1189.274,30.52 1189.674,30.52 C1190.402,30.52 1190.994,30.7959972 1191.45,31.348 C1191.906,31.9000028 1192.134,32.7079947 1192.134,33.772 C1192.134,34.8760055 1191.9,35.7099972 1191.432,36.274 C1190.964,36.8380028 1190.346,37.12 1189.578,37.12 C1188.946,37.12 1188.41,36.916002 1187.97,36.508 C1187.89,36.4439997 1187.834,36.412 1187.802,36.412 C1187.762,36.412 1187.742,36.4679994 1187.742,36.58 L1187.742,38.776 C1187.742,38.9120007 1187.682,38.98 1187.562,38.98 L1186.086,38.98 C1186.03,38.98 1185.984,38.9620002 1185.948,38.926 C1185.912,38.8899998 1185.894,38.8360004 1185.894,38.764 L1185.894,30.904 C1185.894,30.8079995 1185.916,30.7400002 1185.96,30.7 C1186.004,30.6599998 1186.074,30.64 1186.17,30.64 L1187.49,30.64 Z M1187.742,35.356 C1187.918,35.548001 1188.098,35.6959995 1188.282,35.8 C1188.466,35.9040005 1188.67,35.956 1188.894,35.956 C1189.806,35.956 1190.262,35.2160074 1190.262,33.736 C1190.262,32.9999963 1190.146,32.4740016 1189.914,32.158 C1189.682,31.8419984 1189.354,31.684 1188.93,31.684 C1188.602,31.684 1188.322,31.781999 1188.09,31.978 C1187.858,32.174001 1187.742,32.3959988 1187.742,32.644 L1187.742,35.356 Z M1195.83,35.788 C1196.27,35.788 1196.706,35.5520024 1197.138,35.08 L1197.138,30.916 C1197.138,30.7319991 1197.242,30.64 1197.45,30.64 L1198.746,30.64 C1198.842,30.64 1198.908,30.6599998 1198.944,30.7 C1198.98,30.7400002 1198.998,30.8039996 1198.998,30.892 L1198.974,36.784 C1198.974,36.8480003 1198.956,36.8999998 1198.92,36.94 C1198.884,36.9800002 1198.838,37 1198.782,37 L1197.354,37 C1197.234,37 1197.174,36.9320007 1197.174,36.796 L1197.174,36.208 C1197.174,36.1599998 1197.162,36.132 1197.138,36.124 C1197.114,36.116 1197.082,36.1279998 1197.042,36.16 C1196.706,36.5040017 1196.374,36.7499993 1196.046,36.898 C1195.718,37.0460007 1195.362,37.12 1194.978,37.12 C1194.442,37.12 1194.002,36.9460017 1193.658,36.598 C1193.314,36.2499983 1193.142,35.780003 1193.142,35.188 L1193.142,30.928 C1193.142,30.735999 1193.238,30.64 1193.43,30.64 L1194.762,30.64 C1194.914,30.64 1194.99,30.7239992 1194.99,30.892 L1194.99,34.924 C1194.99,35.1880013 1195.066,35.3979992 1195.218,35.554 C1195.37,35.7100008 1195.574,35.788 1195.83,35.788 Z M1202.166,36.712 C1202.166,36.8160005 1202.142,36.8899998 1202.094,36.934 C1202.046,36.9780002 1201.962,37 1201.842,37 L1200.57,37 C1200.474,37 1200.406,36.9800002 1200.366,36.94 C1200.326,36.8999998 1200.306,36.8360004 1200.306,36.748 L1200.342,28.324 C1200.342,28.1719992 1200.406,28.096 1200.534,28.096 L1201.986,28.096 C1202.106,28.096 1202.166,28.1679993 1202.166,28.312 L1202.166,36.712 Z M1207.002,36.388 C1206.474,36.8760024 1205.846,37.12 1205.118,37.12 C1204.518,37.12 1204.042,36.9580016 1203.69,36.634 C1203.338,36.3099984 1203.162,35.8880026 1203.162,35.368 C1203.162,34.6959966 1203.47,34.156002 1204.086,33.748 C1204.702,33.339998 1205.54999,33.1240001 1206.63,33.1 L1207.062,33.064 C1207.11,33.064 1207.152,33.0500001 1207.188,33.022 C1207.224,32.9939999 1207.242,32.9520003 1207.242,32.896 L1207.242,32.644 C1207.242,32.3319984 1207.154,32.0920008 1206.978,31.924 C1206.802,31.7559992 1206.55,31.672 1206.222,31.672 C1205.662,31.672 1205.246,31.9119976 1204.974,32.392 C1204.942,32.4720004 1204.89,32.512 1204.818,32.512 C1204.778,32.512 1204.742,32.508 1204.71,32.5 L1203.51,32.224 C1203.438,32.2079999 1203.402,32.1640004 1203.402,32.092 C1203.402,32.0439998 1203.418,31.9840004 1203.45,31.912 C1203.642,31.4479977 1203.984,31.1000012 1204.476,30.868 C1204.968,30.6359988 1205.578,30.52 1206.306,30.52 C1207.258,30.52 1207.946,30.6939983 1208.37,31.042 C1208.794,31.3900017 1209.006,31.8839968 1209.006,32.524 L1209.006,36.736 C1209.006,36.8320005 1208.99,36.8999998 1208.958,36.94 C1208.926,36.9800002 1208.866,37 1208.778,37 L1207.542,37 C1207.462,37 1207.404,36.9720003 1207.368,36.916 C1207.332,36.8599997 1207.306,36.7760006 1207.29,36.664 L1207.278,36.4 C1207.27,36.3279996 1207.238,36.292 1207.182,36.292 C1207.15,36.292 1207.09,36.3239997 1207.002,36.388 Z M1207.242,34.168 C1207.242,34.0959996 1207.23,34.0440002 1207.206,34.012 C1207.182,33.9799998 1207.134,33.964 1207.062,33.964 L1206.726,33.988 C1206.262,34.0120001 1205.852,34.121999 1205.496,34.318 C1205.14,34.514001 1204.962,34.7839983 1204.962,35.128 C1204.962,35.3680012 1205.046,35.5579993 1205.214,35.698 C1205.382,35.8380007 1205.614,35.908 1205.91,35.908 C1206.278,35.908 1206.59,35.8000011 1206.846,35.584 C1207.11,35.375999 1207.242,35.1640011 1207.242,34.948 L1207.242,34.168 Z M1212.93,31.912 C1212.842,31.912 1212.798,31.9599995 1212.798,32.056 L1212.798,34.948 C1212.798,35.2200014 1212.862,35.4139994 1212.99,35.53 C1213.118,35.6460006 1213.322,35.704 1213.602,35.704 L1214.25,35.704 C1214.306,35.704 1214.35,35.7219998 1214.382,35.758 C1214.414,35.7940002 1214.43,35.8439997 1214.43,35.908 L1214.418,36.64 C1214.418,36.8000008 1214.33,36.8959998 1214.154,36.928 C1213.818,36.9760002 1213.342,37 1212.726,37 C1212.166,37 1211.73,36.8680013 1211.418,36.604 C1211.106,36.3399987 1210.95,35.9560025 1210.95,35.452 L1210.95,32.092 C1210.95,31.9719994 1210.898,31.912 1210.794,31.912 L1210.062,31.912 C1209.91,31.912 1209.834,31.8440007 1209.834,31.708 L1209.834,30.82 C1209.834,30.6999994 1209.906,30.64 1210.05,30.64 L1210.878,30.64 C1210.942,30.64 1210.982,30.5960004 1210.998,30.508 L1211.166,28.684 C1211.182,28.5479993 1211.242,28.48 1211.346,28.48 L1212.654,28.48 C1212.71,28.48 1212.756,28.4999998 1212.792,28.54 C1212.828,28.5800002 1212.846,28.6359996 1212.846,28.708 L1212.846,30.508 C1212.846,30.5880004 1212.886,30.628 1212.966,30.628 L1214.226,30.628 C1214.37,30.628 1214.442,30.6919994 1214.442,30.82 L1214.442,31.708 C1214.442,31.8440007 1214.362,31.912 1214.202,31.912 L1212.93,31.912 Z M1217.058,34.36 C1217.058,34.8080022 1217.208,35.1699986 1217.508,35.446 C1217.808,35.7220014 1218.182,35.86 1218.63,35.86 C1218.918,35.86 1219.184,35.7980006 1219.428,35.674 C1219.672,35.5499994 1219.918,35.3440014 1220.166,35.056 C1220.198,35.0239998 1220.23,35.008 1220.262,35.008 C1220.286,35.008 1220.326,35.0199999 1220.382,35.044 L1221.246,35.404 C1221.302,35.4280001 1221.33,35.4679997 1221.33,35.524 C1221.33,35.5640002 1221.314,35.6039998 1221.282,35.644 C1220.898,36.1880027 1220.486,36.5699989 1220.046,36.79 C1219.606,37.0100011 1219.058,37.12 1218.402,37.12 C1217.786,37.12 1217.23,36.9840014 1216.734,36.712 C1216.238,36.4399986 1215.85,36.0620024 1215.57,35.578 C1215.29,35.0939976 1215.15,34.5400031 1215.15,33.916 C1215.15,33.2439966 1215.294,32.6500026 1215.582,32.134 C1215.87,31.6179974 1216.26,31.2200014 1216.752,30.94 C1217.244,30.6599986 1217.782,30.52 1218.366,30.52 C1218.974,30.52 1219.514,30.6539987 1219.986,30.922 C1220.458,31.1900013 1220.826,31.5759975 1221.09,32.08 C1221.354,32.5840025 1221.486,33.1839965 1221.486,33.88 C1221.486,33.9840005 1221.476,34.0559998 1221.456,34.096 C1221.436,34.1360002 1221.378,34.16 1221.282,34.168 L1217.202,34.168 C1217.106,34.168 1217.058,34.2319994 1217.058,34.36 Z M1219.47,33.16 C1219.558,33.16 1219.614,33.1500001 1219.638,33.13 C1219.662,33.1099999 1219.674,33.0640004 1219.674,32.992 C1219.674,32.783999 1219.626,32.576001 1219.53,32.368 C1219.434,32.159999 1219.294,31.9880007 1219.11,31.852 C1218.926,31.7159993 1218.702,31.648 1218.438,31.648 C1218.038,31.648 1217.71,31.7879986 1217.454,32.068 C1217.198,32.3480014 1217.074,32.7079978 1217.082,33.148 L1219.47,33.16 Z" id="unproductodePopulate" fill="#FFFFFF" fill-rule="nonzero"></path>
            <g id="Combined-Shape-2" transform="translate(1234.500000, 34.000000) rotate(-180.000000) translate(-1234.500000, -34.000000) translate(1226.000000, 23.000000)" fill="#DA352A">
                <path d="M11.1434616,13.1326147 L11.1434616,15.0455096 C11.1434616,17.6715542 10.7284007,18.8873598 9.78325424,20.1035072 C8.90712257,21.2461868 7.15453523,22 5.47128671,22 C3.7880382,22 2.12811863,21.2704483 1.11363333,19.9575968 C0.522633274,19.1453512 0.000648026378,18.2234165 0,16.4345625 C0.000648026378,14.884564 0.512588865,13.0232674 0.512588865,11 C0.512588865,8.97673263 0.000648026378,7.06554627 0,5.56543754 C0.000648026378,3.77077444 0.522633274,2.85464881 1.11363333,2.04274487 C2.12811863,0.729551738 3.7880382,0 5.47128671,0 C7.15453523,0 8.90712257,0.753813178 9.78325424,1.89683452 C10.7284007,3.11264018 11.1434616,4.32844584 11.1434616,6.95449039 L11.1434616,8.86738529 L17,8.86738529 L17,9.20909571 L17,13.090926 L17,13.1326147 L11.1434616,13.1326147 Z M8.18518519,6.14705882 C8.18518519,4.53923774 7.05734468,3.23529412 5.66635189,3.23529412 C4.27567387,3.23529412 3.14814815,4.53923774 3.14814815,6.14705882 C3.14814815,7.75524383 4.27567387,9.05882353 5.66635189,9.05882353 C7.05734468,9.05882353 8.18518519,7.75524383 8.18518519,6.14705882 Z M8.18518519,15.8533051 C8.18518519,14.2451201 7.05734468,12.9411765 5.66635189,12.9411765 C4.27567387,12.9411765 3.14814815,14.2451201 3.14814815,15.8533051 C3.14814815,17.4611262 4.27567387,18.7647059 5.66635189,18.7647059 C7.05734468,18.7647059 8.18518519,17.4611262 8.18518519,15.8533051 Z" id="Combined-Shape"></path>
            </g>
        </g>
    </g>
</svg>