<?xml version="1.0" encoding="UTF-8"?>
<svg width="213px" height="65px" viewBox="0 0 213 65" version="1.1" xmlns="http://www.w3.org/2000/svg" xmlns:xlink="http://www.w3.org/1999/xlink">
    <!-- Generator: Sketch 53.2 (72643) - https://sketchapp.com -->
    <title>Logo-UnProductoDe</title>
    <desc>Created with Sketch.</desc>
    <g id="Symbols" stroke="none" stroke-width="1" fill="none" fill-rule="evenodd">
        <g id="Header" transform="translate(-1056.000000, 0.000000)">
            <rect id="Rectangle" fill="#0F2560" x="1056" y="0" width="213" height="65"></rect>
            <g id="Group-2" transform="translate(1082.000000, 25.000000)" fill="#FFFFFF" font-family="LibreFranklin-Regular, Libre Franklin" font-size="12" font-weight="normal">
                <text id="un-producto-de-Popul">
                    <tspan x="0.19" y="12">un producto de </tspan>
                    <tspan x="87.466" y="12" font-family="LibreFranklin-Bold, Libre Franklin" font-weight="bold">Populate</tspan>
                </text>
            </g>
            <g id="Combined-Shape-2" transform="translate(1234.500000, 34.000000) rotate(-180.000000) translate(-1234.500000, -34.000000) translate(1226.000000, 23.000000)" fill="#DA352A">
                <path d="M11.1434616,13.1326147 L11.1434616,15.0455096 C11.1434616,17.6715542 10.7284007,18.8873598 9.78325424,20.1035072 C8.90712257,21.2461868 7.15453523,22 5.47128671,22 C3.7880382,22 2.12811863,21.2704483 1.11363333,19.9575968 C0.522633274,19.1453512 0.000648026378,18.2234165 0,16.4345625 C0.000648026378,14.884564 0.512588865,13.0232674 0.512588865,11 C0.512588865,8.97673263 0.000648026378,7.06554627 0,5.56543754 C0.000648026378,3.77077444 0.522633274,2.85464881 1.11363333,2.04274487 C2.12811863,0.729551738 3.7880382,0 5.47128671,0 C7.15453523,0 8.90712257,0.753813178 9.78325424,1.89683452 C10.7284007,3.11264018 11.1434616,4.32844584 11.1434616,6.95449039 L11.1434616,8.86738529 L17,8.86738529 L17,9.20909571 L17,13.090926 L17,13.1326147 L11.1434616,13.1326147 Z M8.18518519,6.14705882 C8.18518519,4.53923774 7.05734468,3.23529412 5.66635189,3.23529412 C4.27567387,3.23529412 3.14814815,4.53923774 3.14814815,6.14705882 C3.14814815,7.75524383 4.27567387,9.05882353 5.66635189,9.05882353 C7.05734468,9.05882353 8.18518519,7.75524383 8.18518519,6.14705882 Z M8.18518519,15.8533051 C8.18518519,14.2451201 7.05734468,12.9411765 5.66635189,12.9411765 C4.27567387,12.9411765 3.14814815,14.2451201 3.14814815,15.8533051 C3.14814815,17.4611262 4.27567387,18.7647059 5.66635189,18.7647059 C7.05734468,18.7647059 8.18518519,17.4611262 8.18518519,15.8533051 Z" id="Combined-Shape"></path>
            </g>
        </g>
    </g>
</svg>